<?xml version="1.0" encoding="utf-8" standalone="no"?>
<!DOCTYPE svg PUBLIC "-//W3C//DTD SVG 1.1//EN"
  "http://www.w3.org/Graphics/SVG/1.1/DTD/svg11.dtd">
<!-- Created with matplotlib (http://matplotlib.org/) -->
<svg height="576pt" version="1.1" viewBox="0 0 792 576" width="792pt" xmlns="http://www.w3.org/2000/svg" xmlns:xlink="http://www.w3.org/1999/xlink">
 <defs>
  <style type="text/css">
*{stroke-linecap:butt;stroke-linejoin:round;stroke-miterlimit:100000;}
  </style>
 </defs>
 <g id="figure_1">
  <g id="patch_1">
   <path d="M 0 576 
L 792 576 
L 792 0 
L 0 0 
z
" style="fill:#ffffff;"/>
  </g>
  <g id="axes_1">
   <g id="patch_2">
    <path d="M 99 518.4 
L 712.8 518.4 
L 712.8 57.6 
L 99 57.6 
z
" style="fill:#ffffff;"/>
   </g>
   <g id="line2d_1">
    <path clip-path="url(#pd625ad047c)" d="M 116.537143 472.013454 
L 134.074286 471.099347 
L 151.611429 469.576019 
L 169.148571 467.446583 
L 186.685714 464.710171 
L 204.222857 461.366273 
L 221.76 457.416746 
L 239.297143 452.857254 
L 256.834286 447.690715 
L 274.371429 441.917754 
L 291.908571 435.538719 
L 309.445714 428.545633 
L 326.982857 420.954485 
L 344.52 412.751325 
L 362.057143 403.937857 
L 379.594286 394.521878 
L 397.131429 384.495322 
L 414.668571 373.859922 
L 432.205714 362.612563 
L 449.742857 350.76372 
L 467.28 338.299747 
L 484.817143 325.236003 
L 502.354286 311.569606 
L 519.891429 297.293312 
L 537.428571 282.406349 
L 554.965714 266.911426 
L 572.502857 250.813141 
L 590.04 234.109242 
L 607.577143 216.804513 
L 625.114286 198.891793 
L 642.651429 180.361885 
L 660.188571 161.228431 
L 677.725714 141.488323 
L 695.262857 121.139447 
" style="fill:none;stroke:#ff0000;stroke-linecap:square;stroke-width:1.5;"/>
    <defs>
     <path d="M 0 3 
C 0.795609 3 1.55874 2.683901 2.12132 2.12132 
C 2.683901 1.55874 3 0.795609 3 0 
C 3 -0.795609 2.683901 -1.55874 2.12132 -2.12132 
C 1.55874 -2.683901 0.795609 -3 0 -3 
C -0.795609 -3 -1.55874 -2.683901 -2.12132 -2.12132 
C -2.683901 -1.55874 -3 -0.795609 -3 0 
C -3 0.795609 -2.683901 1.55874 -2.12132 2.12132 
C -1.55874 2.683901 -0.795609 3 0 3 
z
" id="m881ffd3cb3" style="stroke:#000000;stroke-width:0.5;"/>
    </defs>
    <g clip-path="url(#pd625ad047c)">
     <use style="fill:#ff0000;stroke:#000000;stroke-width:0.5;" x="116.537142857" xlink:href="#m881ffd3cb3" y="472.013453889"/>
     <use style="fill:#ff0000;stroke:#000000;stroke-width:0.5;" x="134.074285714" xlink:href="#m881ffd3cb3" y="471.099346531"/>
     <use style="fill:#ff0000;stroke:#000000;stroke-width:0.5;" x="151.611428571" xlink:href="#m881ffd3cb3" y="469.576019428"/>
     <use style="fill:#ff0000;stroke:#000000;stroke-width:0.5;" x="169.148571429" xlink:href="#m881ffd3cb3" y="467.446583342"/>
     <use style="fill:#ff0000;stroke:#000000;stroke-width:0.5;" x="186.685714286" xlink:href="#m881ffd3cb3" y="464.710170986"/>
     <use style="fill:#ff0000;stroke:#000000;stroke-width:0.5;" x="204.222857143" xlink:href="#m881ffd3cb3" y="461.366272845"/>
     <use style="fill:#ff0000;stroke:#000000;stroke-width:0.5;" x="221.76" xlink:href="#m881ffd3cb3" y="457.416745899"/>
     <use style="fill:#ff0000;stroke:#000000;stroke-width:0.5;" x="239.297142857" xlink:href="#m881ffd3cb3" y="452.857253629"/>
     <use style="fill:#ff0000;stroke:#000000;stroke-width:0.5;" x="256.834285714" xlink:href="#m881ffd3cb3" y="447.690714956"/>
     <use style="fill:#ff0000;stroke:#000000;stroke-width:0.5;" x="274.371428571" xlink:href="#m881ffd3cb3" y="441.917754279"/>
     <use style="fill:#ff0000;stroke:#000000;stroke-width:0.5;" x="291.908571429" xlink:href="#m881ffd3cb3" y="435.53871896"/>
     <use style="fill:#ff0000;stroke:#000000;stroke-width:0.5;" x="309.445714286" xlink:href="#m881ffd3cb3" y="428.54563322"/>
     <use style="fill:#ff0000;stroke:#000000;stroke-width:0.5;" x="326.982857143" xlink:href="#m881ffd3cb3" y="420.95448456"/>
     <use style="fill:#ff0000;stroke:#000000;stroke-width:0.5;" x="344.52" xlink:href="#m881ffd3cb3" y="412.751325412"/>
     <use style="fill:#ff0000;stroke:#000000;stroke-width:0.5;" x="362.057142857" xlink:href="#m881ffd3cb3" y="403.937857161"/>
     <use style="fill:#ff0000;stroke:#000000;stroke-width:0.5;" x="379.594285714" xlink:href="#m881ffd3cb3" y="394.521878187"/>
     <use style="fill:#ff0000;stroke:#000000;stroke-width:0.5;" x="397.131428571" xlink:href="#m881ffd3cb3" y="384.495322108"/>
     <use style="fill:#ff0000;stroke:#000000;stroke-width:0.5;" x="414.668571429" xlink:href="#m881ffd3cb3" y="373.859922088"/>
     <use style="fill:#ff0000;stroke:#000000;stroke-width:0.5;" x="432.205714286" xlink:href="#m881ffd3cb3" y="362.612562685"/>
     <use style="fill:#ff0000;stroke:#000000;stroke-width:0.5;" x="449.742857143" xlink:href="#m881ffd3cb3" y="350.763720405"/>
     <use style="fill:#ff0000;stroke:#000000;stroke-width:0.5;" x="467.28" xlink:href="#m881ffd3cb3" y="338.299746506"/>
     <use style="fill:#ff0000;stroke:#000000;stroke-width:0.5;" x="484.817142857" xlink:href="#m881ffd3cb3" y="325.236002626"/>
     <use style="fill:#ff0000;stroke:#000000;stroke-width:0.5;" x="502.354285714" xlink:href="#m881ffd3cb3" y="311.569606466"/>
     <use style="fill:#ff0000;stroke:#000000;stroke-width:0.5;" x="519.891428571" xlink:href="#m881ffd3cb3" y="297.293311817"/>
     <use style="fill:#ff0000;stroke:#000000;stroke-width:0.5;" x="537.428571429" xlink:href="#m881ffd3cb3" y="282.406349452"/>
     <use style="fill:#ff0000;stroke:#000000;stroke-width:0.5;" x="554.965714286" xlink:href="#m881ffd3cb3" y="266.911426076"/>
     <use style="fill:#ff0000;stroke:#000000;stroke-width:0.5;" x="572.502857143" xlink:href="#m881ffd3cb3" y="250.813140783"/>
     <use style="fill:#ff0000;stroke:#000000;stroke-width:0.5;" x="590.04" xlink:href="#m881ffd3cb3" y="234.109241535"/>
     <use style="fill:#ff0000;stroke:#000000;stroke-width:0.5;" x="607.577142857" xlink:href="#m881ffd3cb3" y="216.804512531"/>
     <use style="fill:#ff0000;stroke:#000000;stroke-width:0.5;" x="625.114285714" xlink:href="#m881ffd3cb3" y="198.891793205"/>
     <use style="fill:#ff0000;stroke:#000000;stroke-width:0.5;" x="642.651428571" xlink:href="#m881ffd3cb3" y="180.361884985"/>
     <use style="fill:#ff0000;stroke:#000000;stroke-width:0.5;" x="660.188571429" xlink:href="#m881ffd3cb3" y="161.228430994"/>
     <use style="fill:#ff0000;stroke:#000000;stroke-width:0.5;" x="677.725714286" xlink:href="#m881ffd3cb3" y="141.488323123"/>
     <use style="fill:#ff0000;stroke:#000000;stroke-width:0.5;" x="695.262857143" xlink:href="#m881ffd3cb3" y="121.139447122"/>
    </g>
   </g>
   <g id="line2d_2">
    <path clip-path="url(#pd625ad047c)" d="M 116.537143 472.319879 
L 134.074286 472.319859 
L 151.611429 472.319827 
L 169.148571 472.319777 
L 186.685714 472.319703 
L 204.222857 472.31967 
L 221.76 472.319673 
L 239.297143 472.319505 
L 256.834286 472.319615 
L 274.371429 472.319625 
L 291.908571 472.319648 
L 309.445714 472.319518 
L 326.982857 472.319541 
L 344.52 472.319409 
L 362.057143 472.319289 
L 379.594286 472.319138 
L 397.131429 472.319164 
L 414.668571 472.318936 
L 432.205714 472.31874 
L 449.742857 472.318614 
L 467.28 472.318563 
L 484.817143 472.318404 
L 502.354286 472.318223 
L 519.891429 472.318143 
L 537.428571 472.317833 
L 554.965714 472.317358 
L 572.502857 472.317311 
L 590.04 472.317146 
L 607.577143 472.317025 
L 625.114286 472.316999 
L 642.651429 472.316293 
L 660.188571 472.31633 
L 677.725714 472.316351 
L 695.262857 472.315787 
" style="fill:none;stroke:#bfbf00;stroke-linecap:square;stroke-width:1.5;"/>
    <defs>
     <path d="M 0 3 
C 0.795609 3 1.55874 2.683901 2.12132 2.12132 
C 2.683901 1.55874 3 0.795609 3 0 
C 3 -0.795609 2.683901 -1.55874 2.12132 -2.12132 
C 1.55874 -2.683901 0.795609 -3 0 -3 
C -0.795609 -3 -1.55874 -2.683901 -2.12132 -2.12132 
C -2.683901 -1.55874 -3 -0.795609 -3 0 
C -3 0.795609 -2.683901 1.55874 -2.12132 2.12132 
C -1.55874 2.683901 -0.795609 3 0 3 
z
" id="mcc3c2c247b" style="stroke:#000000;stroke-width:0.5;"/>
    </defs>
    <g clip-path="url(#pd625ad047c)">
     <use style="fill:#bfbf00;stroke:#000000;stroke-width:0.5;" x="116.537142857" xlink:href="#mcc3c2c247b" y="472.319878622"/>
     <use style="fill:#bfbf00;stroke:#000000;stroke-width:0.5;" x="134.074285714" xlink:href="#mcc3c2c247b" y="472.319858882"/>
     <use style="fill:#bfbf00;stroke:#000000;stroke-width:0.5;" x="151.611428571" xlink:href="#mcc3c2c247b" y="472.319826829"/>
     <use style="fill:#bfbf00;stroke:#000000;stroke-width:0.5;" x="169.148571429" xlink:href="#mcc3c2c247b" y="472.319777308"/>
     <use style="fill:#bfbf00;stroke:#000000;stroke-width:0.5;" x="186.685714286" xlink:href="#mcc3c2c247b" y="472.319702871"/>
     <use style="fill:#bfbf00;stroke:#000000;stroke-width:0.5;" x="204.222857143" xlink:href="#mcc3c2c247b" y="472.319670434"/>
     <use style="fill:#bfbf00;stroke:#000000;stroke-width:0.5;" x="221.76" xlink:href="#mcc3c2c247b" y="472.319673106"/>
     <use style="fill:#bfbf00;stroke:#000000;stroke-width:0.5;" x="239.297142857" xlink:href="#mcc3c2c247b" y="472.319505488"/>
     <use style="fill:#bfbf00;stroke:#000000;stroke-width:0.5;" x="256.834285714" xlink:href="#mcc3c2c247b" y="472.31961524"/>
     <use style="fill:#bfbf00;stroke:#000000;stroke-width:0.5;" x="274.371428571" xlink:href="#mcc3c2c247b" y="472.319624995"/>
     <use style="fill:#bfbf00;stroke:#000000;stroke-width:0.5;" x="291.908571429" xlink:href="#mcc3c2c247b" y="472.319648453"/>
     <use style="fill:#bfbf00;stroke:#000000;stroke-width:0.5;" x="309.445714286" xlink:href="#mcc3c2c247b" y="472.319518324"/>
     <use style="fill:#bfbf00;stroke:#000000;stroke-width:0.5;" x="326.982857143" xlink:href="#mcc3c2c247b" y="472.319541378"/>
     <use style="fill:#bfbf00;stroke:#000000;stroke-width:0.5;" x="344.52" xlink:href="#mcc3c2c247b" y="472.31940898"/>
     <use style="fill:#bfbf00;stroke:#000000;stroke-width:0.5;" x="362.057142857" xlink:href="#mcc3c2c247b" y="472.319289499"/>
     <use style="fill:#bfbf00;stroke:#000000;stroke-width:0.5;" x="379.594285714" xlink:href="#mcc3c2c247b" y="472.31913822"/>
     <use style="fill:#bfbf00;stroke:#000000;stroke-width:0.5;" x="397.131428571" xlink:href="#mcc3c2c247b" y="472.31916401"/>
     <use style="fill:#bfbf00;stroke:#000000;stroke-width:0.5;" x="414.668571429" xlink:href="#mcc3c2c247b" y="472.318936032"/>
     <use style="fill:#bfbf00;stroke:#000000;stroke-width:0.5;" x="432.205714286" xlink:href="#mcc3c2c247b" y="472.318740228"/>
     <use style="fill:#bfbf00;stroke:#000000;stroke-width:0.5;" x="449.742857143" xlink:href="#mcc3c2c247b" y="472.318613646"/>
     <use style="fill:#bfbf00;stroke:#000000;stroke-width:0.5;" x="467.28" xlink:href="#mcc3c2c247b" y="472.318563214"/>
     <use style="fill:#bfbf00;stroke:#000000;stroke-width:0.5;" x="484.817142857" xlink:href="#mcc3c2c247b" y="472.31840354"/>
     <use style="fill:#bfbf00;stroke:#000000;stroke-width:0.5;" x="502.354285714" xlink:href="#mcc3c2c247b" y="472.318222949"/>
     <use style="fill:#bfbf00;stroke:#000000;stroke-width:0.5;" x="519.891428571" xlink:href="#mcc3c2c247b" y="472.318142824"/>
     <use style="fill:#bfbf00;stroke:#000000;stroke-width:0.5;" x="537.428571429" xlink:href="#mcc3c2c247b" y="472.317832969"/>
     <use style="fill:#bfbf00;stroke:#000000;stroke-width:0.5;" x="554.965714286" xlink:href="#mcc3c2c247b" y="472.317357951"/>
     <use style="fill:#bfbf00;stroke:#000000;stroke-width:0.5;" x="572.502857143" xlink:href="#mcc3c2c247b" y="472.317311188"/>
     <use style="fill:#bfbf00;stroke:#000000;stroke-width:0.5;" x="590.04" xlink:href="#mcc3c2c247b" y="472.317146008"/>
     <use style="fill:#bfbf00;stroke:#000000;stroke-width:0.5;" x="607.577142857" xlink:href="#mcc3c2c247b" y="472.317025286"/>
     <use style="fill:#bfbf00;stroke:#000000;stroke-width:0.5;" x="625.114285714" xlink:href="#mcc3c2c247b" y="472.316998547"/>
     <use style="fill:#bfbf00;stroke:#000000;stroke-width:0.5;" x="642.651428571" xlink:href="#mcc3c2c247b" y="472.316292537"/>
     <use style="fill:#bfbf00;stroke:#000000;stroke-width:0.5;" x="660.188571429" xlink:href="#mcc3c2c247b" y="472.316329958"/>
     <use style="fill:#bfbf00;stroke:#000000;stroke-width:0.5;" x="677.725714286" xlink:href="#mcc3c2c247b" y="472.316350797"/>
     <use style="fill:#bfbf00;stroke:#000000;stroke-width:0.5;" x="695.262857143" xlink:href="#mcc3c2c247b" y="472.315787107"/>
    </g>
   </g>
   <g id="line2d_3">
    <path clip-path="url(#pd625ad047c)" d="M 116.537143 472.32 
L 134.074286 472.32 
L 151.611429 472.32 
L 169.148571 472.32 
L 186.685714 472.32 
L 204.222857 472.32 
L 221.76 472.32 
L 239.297143 472.32 
L 256.834286 472.32 
L 274.371429 472.32 
L 291.908571 472.32 
L 309.445714 472.32 
L 326.982857 472.32 
L 344.52 472.32 
L 362.057143 472.32 
L 379.594286 472.32 
L 397.131429 472.32 
L 414.668571 472.32 
L 432.205714 472.32 
L 449.742857 472.32 
L 467.28 472.32 
L 484.817143 472.32 
L 502.354286 472.32 
L 519.891429 472.32 
L 537.428571 472.32 
L 554.965714 472.32 
L 572.502857 472.32 
L 590.04 472.32 
L 607.577143 472.32 
L 625.114286 472.32 
L 642.651429 472.32 
L 660.188571 472.32 
L 677.725714 472.32 
L 695.262857 472.32 
" style="fill:none;stroke:#bf00bf;stroke-linecap:square;stroke-width:1.5;"/>
    <defs>
     <path d="M 0 3 
C 0.795609 3 1.55874 2.683901 2.12132 2.12132 
C 2.683901 1.55874 3 0.795609 3 0 
C 3 -0.795609 2.683901 -1.55874 2.12132 -2.12132 
C 1.55874 -2.683901 0.795609 -3 0 -3 
C -0.795609 -3 -1.55874 -2.683901 -2.12132 -2.12132 
C -2.683901 -1.55874 -3 -0.795609 -3 0 
C -3 0.795609 -2.683901 1.55874 -2.12132 2.12132 
C -1.55874 2.683901 -0.795609 3 0 3 
z
" id="mada4092907" style="stroke:#000000;stroke-width:0.5;"/>
    </defs>
    <g clip-path="url(#pd625ad047c)">
     <use style="fill:#bf00bf;stroke:#000000;stroke-width:0.5;" x="116.537142857" xlink:href="#mada4092907" y="472.319999991"/>
     <use style="fill:#bf00bf;stroke:#000000;stroke-width:0.5;" x="134.074285714" xlink:href="#mada4092907" y="472.319999987"/>
     <use style="fill:#bf00bf;stroke:#000000;stroke-width:0.5;" x="151.611428571" xlink:href="#mada4092907" y="472.319999975"/>
     <use style="fill:#bf00bf;stroke:#000000;stroke-width:0.5;" x="169.148571429" xlink:href="#mada4092907" y="472.319999983"/>
     <use style="fill:#bf00bf;stroke:#000000;stroke-width:0.5;" x="186.685714286" xlink:href="#mada4092907" y="472.319999991"/>
     <use style="fill:#bf00bf;stroke:#000000;stroke-width:0.5;" x="204.222857143" xlink:href="#mada4092907" y="472.319999982"/>
     <use style="fill:#bf00bf;stroke:#000000;stroke-width:0.5;" x="221.76" xlink:href="#mada4092907" y="472.319999973"/>
     <use style="fill:#bf00bf;stroke:#000000;stroke-width:0.5;" x="239.297142857" xlink:href="#mada4092907" y="472.319999983"/>
     <use style="fill:#bf00bf;stroke:#000000;stroke-width:0.5;" x="256.834285714" xlink:href="#mada4092907" y="472.319999975"/>
     <use style="fill:#bf00bf;stroke:#000000;stroke-width:0.5;" x="274.371428571" xlink:href="#mada4092907" y="472.319999982"/>
     <use style="fill:#bf00bf;stroke:#000000;stroke-width:0.5;" x="291.908571429" xlink:href="#mada4092907" y="472.319999993"/>
     <use style="fill:#bf00bf;stroke:#000000;stroke-width:0.5;" x="309.445714286" xlink:href="#mada4092907" y="472.319999981"/>
     <use style="fill:#bf00bf;stroke:#000000;stroke-width:0.5;" x="326.982857143" xlink:href="#mada4092907" y="472.319999984"/>
     <use style="fill:#bf00bf;stroke:#000000;stroke-width:0.5;" x="344.52" xlink:href="#mada4092907" y="472.319999993"/>
     <use style="fill:#bf00bf;stroke:#000000;stroke-width:0.5;" x="362.057142857" xlink:href="#mada4092907" y="472.319999977"/>
     <use style="fill:#bf00bf;stroke:#000000;stroke-width:0.5;" x="379.594285714" xlink:href="#mada4092907" y="472.31999998"/>
     <use style="fill:#bf00bf;stroke:#000000;stroke-width:0.5;" x="397.131428571" xlink:href="#mada4092907" y="472.319999988"/>
     <use style="fill:#bf00bf;stroke:#000000;stroke-width:0.5;" x="414.668571429" xlink:href="#mada4092907" y="472.319999984"/>
     <use style="fill:#bf00bf;stroke:#000000;stroke-width:0.5;" x="432.205714286" xlink:href="#mada4092907" y="472.319999981"/>
     <use style="fill:#bf00bf;stroke:#000000;stroke-width:0.5;" x="449.742857143" xlink:href="#mada4092907" y="472.319999981"/>
     <use style="fill:#bf00bf;stroke:#000000;stroke-width:0.5;" x="467.28" xlink:href="#mada4092907" y="472.319999995"/>
     <use style="fill:#bf00bf;stroke:#000000;stroke-width:0.5;" x="484.817142857" xlink:href="#mada4092907" y="472.319999984"/>
     <use style="fill:#bf00bf;stroke:#000000;stroke-width:0.5;" x="502.354285714" xlink:href="#mada4092907" y="472.31999999"/>
     <use style="fill:#bf00bf;stroke:#000000;stroke-width:0.5;" x="519.891428571" xlink:href="#mada4092907" y="472.319999986"/>
     <use style="fill:#bf00bf;stroke:#000000;stroke-width:0.5;" x="537.428571429" xlink:href="#mada4092907" y="472.319999985"/>
     <use style="fill:#bf00bf;stroke:#000000;stroke-width:0.5;" x="554.965714286" xlink:href="#mada4092907" y="472.319999988"/>
     <use style="fill:#bf00bf;stroke:#000000;stroke-width:0.5;" x="572.502857143" xlink:href="#mada4092907" y="472.319999983"/>
     <use style="fill:#bf00bf;stroke:#000000;stroke-width:0.5;" x="590.04" xlink:href="#mada4092907" y="472.319999988"/>
     <use style="fill:#bf00bf;stroke:#000000;stroke-width:0.5;" x="607.577142857" xlink:href="#mada4092907" y="472.319999981"/>
     <use style="fill:#bf00bf;stroke:#000000;stroke-width:0.5;" x="625.114285714" xlink:href="#mada4092907" y="472.319999988"/>
     <use style="fill:#bf00bf;stroke:#000000;stroke-width:0.5;" x="642.651428571" xlink:href="#mada4092907" y="472.319999978"/>
     <use style="fill:#bf00bf;stroke:#000000;stroke-width:0.5;" x="660.188571429" xlink:href="#mada4092907" y="472.319999983"/>
     <use style="fill:#bf00bf;stroke:#000000;stroke-width:0.5;" x="677.725714286" xlink:href="#mada4092907" y="472.319999967"/>
     <use style="fill:#bf00bf;stroke:#000000;stroke-width:0.5;" x="695.262857143" xlink:href="#mada4092907" y="472.31999997"/>
    </g>
   </g>
   <g id="line2d_4">
    <path clip-path="url(#pd625ad047c)" d="M 116.537143 472.038466 
L 134.074286 471.202832 
L 151.611429 469.813082 
L 169.148571 467.869215 
L 186.685714 465.37123 
L 204.222857 462.319129 
L 221.76 458.712911 
L 239.297143 454.552576 
L 256.834286 449.838123 
L 274.371429 444.569554 
L 291.908571 439.599106 
L 309.445714 439.590192 
L 326.982857 439.598317 
L 344.52 439.588442 
L 362.057143 439.588371 
L 379.594286 439.59842 
L 397.131429 439.592369 
L 414.668571 439.593152 
L 432.205714 439.595654 
L 449.742857 439.597157 
L 467.28 439.582801 
L 484.817143 439.584268 
L 502.354286 439.595631 
L 519.891429 439.594283 
L 537.428571 439.5971 
L 554.965714 439.579614 
L 572.502857 439.596315 
L 590.04 439.590608 
L 607.577143 439.595582 
L 625.114286 439.595752 
L 642.651429 439.598796 
L 660.188571 439.591524 
L 677.725714 439.590802 
L 695.262857 439.598683 
" style="fill:none;stroke:#00bfbf;stroke-linecap:square;stroke-width:1.5;"/>
    <defs>
     <path d="M 0 3 
C 0.795609 3 1.55874 2.683901 2.12132 2.12132 
C 2.683901 1.55874 3 0.795609 3 0 
C 3 -0.795609 2.683901 -1.55874 2.12132 -2.12132 
C 1.55874 -2.683901 0.795609 -3 0 -3 
C -0.795609 -3 -1.55874 -2.683901 -2.12132 -2.12132 
C -2.683901 -1.55874 -3 -0.795609 -3 0 
C -3 0.795609 -2.683901 1.55874 -2.12132 2.12132 
C -1.55874 2.683901 -0.795609 3 0 3 
z
" id="m84a97c7396" style="stroke:#000000;stroke-width:0.5;"/>
    </defs>
    <g clip-path="url(#pd625ad047c)">
     <use style="fill:#00bfbf;stroke:#000000;stroke-width:0.5;" x="116.537142857" xlink:href="#m84a97c7396" y="472.038465708"/>
     <use style="fill:#00bfbf;stroke:#000000;stroke-width:0.5;" x="134.074285714" xlink:href="#m84a97c7396" y="471.202832359"/>
     <use style="fill:#00bfbf;stroke:#000000;stroke-width:0.5;" x="151.611428571" xlink:href="#m84a97c7396" y="469.813082022"/>
     <use style="fill:#00bfbf;stroke:#000000;stroke-width:0.5;" x="169.148571429" xlink:href="#m84a97c7396" y="467.869214696"/>
     <use style="fill:#00bfbf;stroke:#000000;stroke-width:0.5;" x="186.685714286" xlink:href="#m84a97c7396" y="465.371230382"/>
     <use style="fill:#00bfbf;stroke:#000000;stroke-width:0.5;" x="204.222857143" xlink:href="#m84a97c7396" y="462.319129078"/>
     <use style="fill:#00bfbf;stroke:#000000;stroke-width:0.5;" x="221.76" xlink:href="#m84a97c7396" y="458.712910786"/>
     <use style="fill:#00bfbf;stroke:#000000;stroke-width:0.5;" x="239.297142857" xlink:href="#m84a97c7396" y="454.552575506"/>
     <use style="fill:#00bfbf;stroke:#000000;stroke-width:0.5;" x="256.834285714" xlink:href="#m84a97c7396" y="449.838123237"/>
     <use style="fill:#00bfbf;stroke:#000000;stroke-width:0.5;" x="274.371428571" xlink:href="#m84a97c7396" y="444.569553979"/>
     <use style="fill:#00bfbf;stroke:#000000;stroke-width:0.5;" x="291.908571429" xlink:href="#m84a97c7396" y="439.599105675"/>
     <use style="fill:#00bfbf;stroke:#000000;stroke-width:0.5;" x="309.445714286" xlink:href="#m84a97c7396" y="439.590192067"/>
     <use style="fill:#00bfbf;stroke:#000000;stroke-width:0.5;" x="326.982857143" xlink:href="#m84a97c7396" y="439.598316553"/>
     <use style="fill:#00bfbf;stroke:#000000;stroke-width:0.5;" x="344.52" xlink:href="#m84a97c7396" y="439.588441825"/>
     <use style="fill:#00bfbf;stroke:#000000;stroke-width:0.5;" x="362.057142857" xlink:href="#m84a97c7396" y="439.588370926"/>
     <use style="fill:#00bfbf;stroke:#000000;stroke-width:0.5;" x="379.594285714" xlink:href="#m84a97c7396" y="439.598420182"/>
     <use style="fill:#00bfbf;stroke:#000000;stroke-width:0.5;" x="397.131428571" xlink:href="#m84a97c7396" y="439.592368781"/>
     <use style="fill:#00bfbf;stroke:#000000;stroke-width:0.5;" x="414.668571429" xlink:href="#m84a97c7396" y="439.5931525"/>
     <use style="fill:#00bfbf;stroke:#000000;stroke-width:0.5;" x="432.205714286" xlink:href="#m84a97c7396" y="439.595654142"/>
     <use style="fill:#00bfbf;stroke:#000000;stroke-width:0.5;" x="449.742857143" xlink:href="#m84a97c7396" y="439.597157165"/>
     <use style="fill:#00bfbf;stroke:#000000;stroke-width:0.5;" x="467.28" xlink:href="#m84a97c7396" y="439.582801352"/>
     <use style="fill:#00bfbf;stroke:#000000;stroke-width:0.5;" x="484.817142857" xlink:href="#m84a97c7396" y="439.584267543"/>
     <use style="fill:#00bfbf;stroke:#000000;stroke-width:0.5;" x="502.354285714" xlink:href="#m84a97c7396" y="439.595630687"/>
     <use style="fill:#00bfbf;stroke:#000000;stroke-width:0.5;" x="519.891428571" xlink:href="#m84a97c7396" y="439.594283067"/>
     <use style="fill:#00bfbf;stroke:#000000;stroke-width:0.5;" x="537.428571429" xlink:href="#m84a97c7396" y="439.597100428"/>
     <use style="fill:#00bfbf;stroke:#000000;stroke-width:0.5;" x="554.965714286" xlink:href="#m84a97c7396" y="439.579614077"/>
     <use style="fill:#00bfbf;stroke:#000000;stroke-width:0.5;" x="572.502857143" xlink:href="#m84a97c7396" y="439.596315118"/>
     <use style="fill:#00bfbf;stroke:#000000;stroke-width:0.5;" x="590.04" xlink:href="#m84a97c7396" y="439.590608217"/>
     <use style="fill:#00bfbf;stroke:#000000;stroke-width:0.5;" x="607.577142857" xlink:href="#m84a97c7396" y="439.595581602"/>
     <use style="fill:#00bfbf;stroke:#000000;stroke-width:0.5;" x="625.114285714" xlink:href="#m84a97c7396" y="439.595752315"/>
     <use style="fill:#00bfbf;stroke:#000000;stroke-width:0.5;" x="642.651428571" xlink:href="#m84a97c7396" y="439.598795902"/>
     <use style="fill:#00bfbf;stroke:#000000;stroke-width:0.5;" x="660.188571429" xlink:href="#m84a97c7396" y="439.591523969"/>
     <use style="fill:#00bfbf;stroke:#000000;stroke-width:0.5;" x="677.725714286" xlink:href="#m84a97c7396" y="439.590802389"/>
     <use style="fill:#00bfbf;stroke:#000000;stroke-width:0.5;" x="695.262857143" xlink:href="#m84a97c7396" y="439.598683028"/>
    </g>
   </g>
   <g id="line2d_5">
    <path clip-path="url(#pd625ad047c)" d="M 116.537143 472.038466 
L 134.074286 471.202832 
L 151.611429 469.813082 
L 169.148571 467.869215 
L 186.685714 465.37123 
L 204.222857 462.319129 
L 221.76 458.712911 
L 239.297143 454.552576 
L 256.834286 449.838123 
L 274.371429 444.569554 
L 291.908571 438.746868 
L 309.445714 432.370064 
L 326.982857 425.439144 
L 344.52 417.954107 
L 362.057143 409.914953 
L 379.594286 401.321682 
L 397.131429 392.174293 
L 414.668571 382.472788 
L 432.205714 372.217166 
L 449.742857 361.407427 
L 467.28 350.043571 
L 484.817143 341.418539 
L 502.354286 341.427084 
L 519.891429 341.421553 
L 537.428571 341.432859 
L 554.965714 341.423414 
L 572.502857 341.422781 
L 590.04 341.434055 
L 607.577143 341.432658 
L 625.114286 341.41882 
L 642.651429 341.433415 
L 660.188571 341.404691 
L 677.725714 341.4231 
L 695.262857 341.410502 
" style="fill:none;stroke:#0000ff;stroke-linecap:square;stroke-width:1.5;"/>
    <defs>
     <path d="M 0 3 
C 0.795609 3 1.55874 2.683901 2.12132 2.12132 
C 2.683901 1.55874 3 0.795609 3 0 
C 3 -0.795609 2.683901 -1.55874 2.12132 -2.12132 
C 1.55874 -2.683901 0.795609 -3 0 -3 
C -0.795609 -3 -1.55874 -2.683901 -2.12132 -2.12132 
C -2.683901 -1.55874 -3 -0.795609 -3 0 
C -3 0.795609 -2.683901 1.55874 -2.12132 2.12132 
C -1.55874 2.683901 -0.795609 3 0 3 
z
" id="m76c1b75bf7" style="stroke:#000000;stroke-width:0.5;"/>
    </defs>
    <g clip-path="url(#pd625ad047c)">
     <use style="fill:#0000ff;stroke:#000000;stroke-width:0.5;" x="116.537142857" xlink:href="#m76c1b75bf7" y="472.038465708"/>
     <use style="fill:#0000ff;stroke:#000000;stroke-width:0.5;" x="134.074285714" xlink:href="#m76c1b75bf7" y="471.202832359"/>
     <use style="fill:#0000ff;stroke:#000000;stroke-width:0.5;" x="151.611428571" xlink:href="#m76c1b75bf7" y="469.813082022"/>
     <use style="fill:#0000ff;stroke:#000000;stroke-width:0.5;" x="169.148571429" xlink:href="#m76c1b75bf7" y="467.869214696"/>
     <use style="fill:#0000ff;stroke:#000000;stroke-width:0.5;" x="186.685714286" xlink:href="#m76c1b75bf7" y="465.371230382"/>
     <use style="fill:#0000ff;stroke:#000000;stroke-width:0.5;" x="204.222857143" xlink:href="#m76c1b75bf7" y="462.319129078"/>
     <use style="fill:#0000ff;stroke:#000000;stroke-width:0.5;" x="221.76" xlink:href="#m76c1b75bf7" y="458.712910786"/>
     <use style="fill:#0000ff;stroke:#000000;stroke-width:0.5;" x="239.297142857" xlink:href="#m76c1b75bf7" y="454.552575506"/>
     <use style="fill:#0000ff;stroke:#000000;stroke-width:0.5;" x="256.834285714" xlink:href="#m76c1b75bf7" y="449.838123237"/>
     <use style="fill:#0000ff;stroke:#000000;stroke-width:0.5;" x="274.371428571" xlink:href="#m76c1b75bf7" y="444.569553979"/>
     <use style="fill:#0000ff;stroke:#000000;stroke-width:0.5;" x="291.908571429" xlink:href="#m76c1b75bf7" y="438.746867732"/>
     <use style="fill:#0000ff;stroke:#000000;stroke-width:0.5;" x="309.445714286" xlink:href="#m76c1b75bf7" y="432.370064497"/>
     <use style="fill:#0000ff;stroke:#000000;stroke-width:0.5;" x="326.982857143" xlink:href="#m76c1b75bf7" y="425.439144274"/>
     <use style="fill:#0000ff;stroke:#000000;stroke-width:0.5;" x="344.52" xlink:href="#m76c1b75bf7" y="417.954107061"/>
     <use style="fill:#0000ff;stroke:#000000;stroke-width:0.5;" x="362.057142857" xlink:href="#m76c1b75bf7" y="409.91495286"/>
     <use style="fill:#0000ff;stroke:#000000;stroke-width:0.5;" x="379.594285714" xlink:href="#m76c1b75bf7" y="401.321681671"/>
     <use style="fill:#0000ff;stroke:#000000;stroke-width:0.5;" x="397.131428571" xlink:href="#m76c1b75bf7" y="392.174293492"/>
     <use style="fill:#0000ff;stroke:#000000;stroke-width:0.5;" x="414.668571429" xlink:href="#m76c1b75bf7" y="382.472788325"/>
     <use style="fill:#0000ff;stroke:#000000;stroke-width:0.5;" x="432.205714286" xlink:href="#m76c1b75bf7" y="372.21716617"/>
     <use style="fill:#0000ff;stroke:#000000;stroke-width:0.5;" x="449.742857143" xlink:href="#m76c1b75bf7" y="361.407427026"/>
     <use style="fill:#0000ff;stroke:#000000;stroke-width:0.5;" x="467.28" xlink:href="#m76c1b75bf7" y="350.043570893"/>
     <use style="fill:#0000ff;stroke:#000000;stroke-width:0.5;" x="484.817142857" xlink:href="#m76c1b75bf7" y="341.418539416"/>
     <use style="fill:#0000ff;stroke:#000000;stroke-width:0.5;" x="502.354285714" xlink:href="#m76c1b75bf7" y="341.427084198"/>
     <use style="fill:#0000ff;stroke:#000000;stroke-width:0.5;" x="519.891428571" xlink:href="#m76c1b75bf7" y="341.421553132"/>
     <use style="fill:#0000ff;stroke:#000000;stroke-width:0.5;" x="537.428571429" xlink:href="#m76c1b75bf7" y="341.432859448"/>
     <use style="fill:#0000ff;stroke:#000000;stroke-width:0.5;" x="554.965714286" xlink:href="#m76c1b75bf7" y="341.423413918"/>
     <use style="fill:#0000ff;stroke:#000000;stroke-width:0.5;" x="572.502857143" xlink:href="#m76c1b75bf7" y="341.422781314"/>
     <use style="fill:#0000ff;stroke:#000000;stroke-width:0.5;" x="590.04" xlink:href="#m76c1b75bf7" y="341.434054847"/>
     <use style="fill:#0000ff;stroke:#000000;stroke-width:0.5;" x="607.577142857" xlink:href="#m76c1b75bf7" y="341.432657684"/>
     <use style="fill:#0000ff;stroke:#000000;stroke-width:0.5;" x="625.114285714" xlink:href="#m76c1b75bf7" y="341.418819734"/>
     <use style="fill:#0000ff;stroke:#000000;stroke-width:0.5;" x="642.651428571" xlink:href="#m76c1b75bf7" y="341.433414621"/>
     <use style="fill:#0000ff;stroke:#000000;stroke-width:0.5;" x="660.188571429" xlink:href="#m76c1b75bf7" y="341.404690927"/>
     <use style="fill:#0000ff;stroke:#000000;stroke-width:0.5;" x="677.725714286" xlink:href="#m76c1b75bf7" y="341.423099796"/>
     <use style="fill:#0000ff;stroke:#000000;stroke-width:0.5;" x="695.262857143" xlink:href="#m76c1b75bf7" y="341.410501585"/>
    </g>
   </g>
   <g id="line2d_6">
    <path clip-path="url(#pd625ad047c)" d="M 116.537143 472.038466 
L 134.074286 471.202832 
L 151.611429 469.813082 
L 169.148571 467.869215 
L 186.685714 465.37123 
L 204.222857 462.319129 
L 221.76 458.712911 
L 239.297143 454.552576 
L 256.834286 449.838123 
L 274.371429 444.569554 
L 291.908571 438.746868 
L 309.445714 432.370064 
L 326.982857 425.439144 
L 344.52 417.954107 
L 362.057143 409.914953 
L 379.594286 401.321682 
L 397.131429 392.174293 
L 414.668571 382.472788 
L 432.205714 372.217166 
L 449.742857 361.407427 
L 467.28 350.043571 
L 484.817143 338.125598 
L 502.354286 325.653508 
L 519.891429 312.627301 
L 537.428571 299.046976 
L 554.965714 284.912535 
L 572.502857 270.223977 
L 590.04 254.981302 
L 607.577143 239.18451 
L 625.114286 222.833601 
L 642.651429 205.928575 
L 660.188571 188.469432 
L 677.725714 177.787085 
L 695.262857 177.802219 
" style="fill:none;stroke:#008000;stroke-linecap:square;stroke-width:1.5;"/>
    <defs>
     <path d="M 0 3 
C 0.795609 3 1.55874 2.683901 2.12132 2.12132 
C 2.683901 1.55874 3 0.795609 3 0 
C 3 -0.795609 2.683901 -1.55874 2.12132 -2.12132 
C 1.55874 -2.683901 0.795609 -3 0 -3 
C -0.795609 -3 -1.55874 -2.683901 -2.12132 -2.12132 
C -2.683901 -1.55874 -3 -0.795609 -3 0 
C -3 0.795609 -2.683901 1.55874 -2.12132 2.12132 
C -1.55874 2.683901 -0.795609 3 0 3 
z
" id="m9e935b4a4f" style="stroke:#000000;stroke-width:0.5;"/>
    </defs>
    <g clip-path="url(#pd625ad047c)">
     <use style="fill:#008000;stroke:#000000;stroke-width:0.5;" x="116.537142857" xlink:href="#m9e935b4a4f" y="472.038465708"/>
     <use style="fill:#008000;stroke:#000000;stroke-width:0.5;" x="134.074285714" xlink:href="#m9e935b4a4f" y="471.202832359"/>
     <use style="fill:#008000;stroke:#000000;stroke-width:0.5;" x="151.611428571" xlink:href="#m9e935b4a4f" y="469.813082022"/>
     <use style="fill:#008000;stroke:#000000;stroke-width:0.5;" x="169.148571429" xlink:href="#m9e935b4a4f" y="467.869214696"/>
     <use style="fill:#008000;stroke:#000000;stroke-width:0.5;" x="186.685714286" xlink:href="#m9e935b4a4f" y="465.371230382"/>
     <use style="fill:#008000;stroke:#000000;stroke-width:0.5;" x="204.222857143" xlink:href="#m9e935b4a4f" y="462.319129078"/>
     <use style="fill:#008000;stroke:#000000;stroke-width:0.5;" x="221.76" xlink:href="#m9e935b4a4f" y="458.712910786"/>
     <use style="fill:#008000;stroke:#000000;stroke-width:0.5;" x="239.297142857" xlink:href="#m9e935b4a4f" y="454.552575506"/>
     <use style="fill:#008000;stroke:#000000;stroke-width:0.5;" x="256.834285714" xlink:href="#m9e935b4a4f" y="449.838123237"/>
     <use style="fill:#008000;stroke:#000000;stroke-width:0.5;" x="274.371428571" xlink:href="#m9e935b4a4f" y="444.569553979"/>
     <use style="fill:#008000;stroke:#000000;stroke-width:0.5;" x="291.908571429" xlink:href="#m9e935b4a4f" y="438.746867732"/>
     <use style="fill:#008000;stroke:#000000;stroke-width:0.5;" x="309.445714286" xlink:href="#m9e935b4a4f" y="432.370064497"/>
     <use style="fill:#008000;stroke:#000000;stroke-width:0.5;" x="326.982857143" xlink:href="#m9e935b4a4f" y="425.439144274"/>
     <use style="fill:#008000;stroke:#000000;stroke-width:0.5;" x="344.52" xlink:href="#m9e935b4a4f" y="417.954107061"/>
     <use style="fill:#008000;stroke:#000000;stroke-width:0.5;" x="362.057142857" xlink:href="#m9e935b4a4f" y="409.91495286"/>
     <use style="fill:#008000;stroke:#000000;stroke-width:0.5;" x="379.594285714" xlink:href="#m9e935b4a4f" y="401.321681671"/>
     <use style="fill:#008000;stroke:#000000;stroke-width:0.5;" x="397.131428571" xlink:href="#m9e935b4a4f" y="392.174293492"/>
     <use style="fill:#008000;stroke:#000000;stroke-width:0.5;" x="414.668571429" xlink:href="#m9e935b4a4f" y="382.472788325"/>
     <use style="fill:#008000;stroke:#000000;stroke-width:0.5;" x="432.205714286" xlink:href="#m9e935b4a4f" y="372.21716617"/>
     <use style="fill:#008000;stroke:#000000;stroke-width:0.5;" x="449.742857143" xlink:href="#m9e935b4a4f" y="361.407427026"/>
     <use style="fill:#008000;stroke:#000000;stroke-width:0.5;" x="467.28" xlink:href="#m9e935b4a4f" y="350.043570893"/>
     <use style="fill:#008000;stroke:#000000;stroke-width:0.5;" x="484.817142857" xlink:href="#m9e935b4a4f" y="338.125597771"/>
     <use style="fill:#008000;stroke:#000000;stroke-width:0.5;" x="502.354285714" xlink:href="#m9e935b4a4f" y="325.653507661"/>
     <use style="fill:#008000;stroke:#000000;stroke-width:0.5;" x="519.891428571" xlink:href="#m9e935b4a4f" y="312.627300563"/>
     <use style="fill:#008000;stroke:#000000;stroke-width:0.5;" x="537.428571429" xlink:href="#m9e935b4a4f" y="299.046976475"/>
     <use style="fill:#008000;stroke:#000000;stroke-width:0.5;" x="554.965714286" xlink:href="#m9e935b4a4f" y="284.912535399"/>
     <use style="fill:#008000;stroke:#000000;stroke-width:0.5;" x="572.502857143" xlink:href="#m9e935b4a4f" y="270.223977335"/>
     <use style="fill:#008000;stroke:#000000;stroke-width:0.5;" x="590.04" xlink:href="#m9e935b4a4f" y="254.981302281"/>
     <use style="fill:#008000;stroke:#000000;stroke-width:0.5;" x="607.577142857" xlink:href="#m9e935b4a4f" y="239.184510239"/>
     <use style="fill:#008000;stroke:#000000;stroke-width:0.5;" x="625.114285714" xlink:href="#m9e935b4a4f" y="222.833601209"/>
     <use style="fill:#008000;stroke:#000000;stroke-width:0.5;" x="642.651428571" xlink:href="#m9e935b4a4f" y="205.92857519"/>
     <use style="fill:#008000;stroke:#000000;stroke-width:0.5;" x="660.188571429" xlink:href="#m9e935b4a4f" y="188.469432182"/>
     <use style="fill:#008000;stroke:#000000;stroke-width:0.5;" x="677.725714286" xlink:href="#m9e935b4a4f" y="177.787085115"/>
     <use style="fill:#008000;stroke:#000000;stroke-width:0.5;" x="695.262857143" xlink:href="#m9e935b4a4f" y="177.80221917"/>
    </g>
   </g>
   <g id="patch_3">
    <path d="M 99 57.6 
L 712.8 57.6 
" style="fill:none;stroke:#000000;stroke-linecap:square;stroke-linejoin:miter;"/>
   </g>
   <g id="patch_4">
    <path d="M 712.8 518.4 
L 712.8 57.6 
" style="fill:none;stroke:#000000;stroke-linecap:square;stroke-linejoin:miter;"/>
   </g>
   <g id="patch_5">
    <path d="M 99 518.4 
L 712.8 518.4 
" style="fill:none;stroke:#000000;stroke-linecap:square;stroke-linejoin:miter;"/>
   </g>
   <g id="patch_6">
    <path d="M 99 518.4 
L 99 57.6 
" style="fill:none;stroke:#000000;stroke-linecap:square;stroke-linejoin:miter;"/>
   </g>
   <g id="matplotlib.axis_1">
    <g id="xtick_1">
     <g id="line2d_7">
      <defs>
       <path d="M 0 0 
L 0 -4 
" id="m5b40349ae8" style="stroke:#000000;stroke-width:0.5;"/>
      </defs>
      <g>
       <use style="stroke:#000000;stroke-width:0.5;" x="99.0" xlink:href="#m5b40349ae8" y="518.4"/>
      </g>
     </g>
     <g id="line2d_8">
      <defs>
       <path d="M 0 0 
L 0 4 
" id="m9f2df54fb7" style="stroke:#000000;stroke-width:0.5;"/>
      </defs>
      <g>
       <use style="stroke:#000000;stroke-width:0.5;" x="99.0" xlink:href="#m9f2df54fb7" y="57.6"/>
      </g>
     </g>
     <g id="text_1">
      <!-- 0 -->
      <defs>
       <path d="M 31.78125 66.40625 
Q 24.171875 66.40625 20.328125 58.90625 
Q 16.5 51.421875 16.5 36.375 
Q 16.5 21.390625 20.328125 13.890625 
Q 24.171875 6.390625 31.78125 6.390625 
Q 39.453125 6.390625 43.28125 13.890625 
Q 47.125 21.390625 47.125 36.375 
Q 47.125 51.421875 43.28125 58.90625 
Q 39.453125 66.40625 31.78125 66.40625 
M 31.78125 74.21875 
Q 44.046875 74.21875 50.515625 64.515625 
Q 56.984375 54.828125 56.984375 36.375 
Q 56.984375 17.96875 50.515625 8.265625 
Q 44.046875 -1.421875 31.78125 -1.421875 
Q 19.53125 -1.421875 13.0625 8.265625 
Q 6.59375 17.96875 6.59375 36.375 
Q 6.59375 54.828125 13.0625 64.515625 
Q 19.53125 74.21875 31.78125 74.21875 
" id="BitstreamVeraSans-Roman-30"/>
      </defs>
      <g transform="translate(92.6375 537.596875)scale(0.2 -0.2)">
       <use xlink:href="#BitstreamVeraSans-Roman-30"/>
      </g>
     </g>
    </g>
    <g id="xtick_2">
     <g id="line2d_9">
      <g>
       <use style="stroke:#000000;stroke-width:0.5;" x="186.685714286" xlink:href="#m5b40349ae8" y="518.4"/>
      </g>
     </g>
     <g id="line2d_10">
      <g>
       <use style="stroke:#000000;stroke-width:0.5;" x="186.685714286" xlink:href="#m9f2df54fb7" y="57.6"/>
      </g>
     </g>
     <g id="text_2">
      <!-- 1 -->
      <defs>
       <path d="M 12.40625 8.296875 
L 28.515625 8.296875 
L 28.515625 63.921875 
L 10.984375 60.40625 
L 10.984375 69.390625 
L 28.421875 72.90625 
L 38.28125 72.90625 
L 38.28125 8.296875 
L 54.390625 8.296875 
L 54.390625 0 
L 12.40625 0 
z
" id="BitstreamVeraSans-Roman-31"/>
      </defs>
      <g transform="translate(180.323214286 537.596875)scale(0.2 -0.2)">
       <use xlink:href="#BitstreamVeraSans-Roman-31"/>
      </g>
     </g>
    </g>
    <g id="xtick_3">
     <g id="line2d_11">
      <g>
       <use style="stroke:#000000;stroke-width:0.5;" x="274.371428571" xlink:href="#m5b40349ae8" y="518.4"/>
      </g>
     </g>
     <g id="line2d_12">
      <g>
       <use style="stroke:#000000;stroke-width:0.5;" x="274.371428571" xlink:href="#m9f2df54fb7" y="57.6"/>
      </g>
     </g>
     <g id="text_3">
      <!-- 2 -->
      <defs>
       <path d="M 19.1875 8.296875 
L 53.609375 8.296875 
L 53.609375 0 
L 7.328125 0 
L 7.328125 8.296875 
Q 12.9375 14.109375 22.625 23.890625 
Q 32.328125 33.6875 34.8125 36.53125 
Q 39.546875 41.84375 41.421875 45.53125 
Q 43.3125 49.21875 43.3125 52.78125 
Q 43.3125 58.59375 39.234375 62.25 
Q 35.15625 65.921875 28.609375 65.921875 
Q 23.96875 65.921875 18.8125 64.3125 
Q 13.671875 62.703125 7.8125 59.421875 
L 7.8125 69.390625 
Q 13.765625 71.78125 18.9375 73 
Q 24.125 74.21875 28.421875 74.21875 
Q 39.75 74.21875 46.484375 68.546875 
Q 53.21875 62.890625 53.21875 53.421875 
Q 53.21875 48.921875 51.53125 44.890625 
Q 49.859375 40.875 45.40625 35.40625 
Q 44.1875 33.984375 37.640625 27.21875 
Q 31.109375 20.453125 19.1875 8.296875 
" id="BitstreamVeraSans-Roman-32"/>
      </defs>
      <g transform="translate(268.008928571 537.596875)scale(0.2 -0.2)">
       <use xlink:href="#BitstreamVeraSans-Roman-32"/>
      </g>
     </g>
    </g>
    <g id="xtick_4">
     <g id="line2d_13">
      <g>
       <use style="stroke:#000000;stroke-width:0.5;" x="362.057142857" xlink:href="#m5b40349ae8" y="518.4"/>
      </g>
     </g>
     <g id="line2d_14">
      <g>
       <use style="stroke:#000000;stroke-width:0.5;" x="362.057142857" xlink:href="#m9f2df54fb7" y="57.6"/>
      </g>
     </g>
     <g id="text_4">
      <!-- 3 -->
      <defs>
       <path d="M 40.578125 39.3125 
Q 47.65625 37.796875 51.625 33 
Q 55.609375 28.21875 55.609375 21.1875 
Q 55.609375 10.40625 48.1875 4.484375 
Q 40.765625 -1.421875 27.09375 -1.421875 
Q 22.515625 -1.421875 17.65625 -0.515625 
Q 12.796875 0.390625 7.625 2.203125 
L 7.625 11.71875 
Q 11.71875 9.328125 16.59375 8.109375 
Q 21.484375 6.890625 26.8125 6.890625 
Q 36.078125 6.890625 40.9375 10.546875 
Q 45.796875 14.203125 45.796875 21.1875 
Q 45.796875 27.640625 41.28125 31.265625 
Q 36.765625 34.90625 28.71875 34.90625 
L 20.21875 34.90625 
L 20.21875 43.015625 
L 29.109375 43.015625 
Q 36.375 43.015625 40.234375 45.921875 
Q 44.09375 48.828125 44.09375 54.296875 
Q 44.09375 59.90625 40.109375 62.90625 
Q 36.140625 65.921875 28.71875 65.921875 
Q 24.65625 65.921875 20.015625 65.03125 
Q 15.375 64.15625 9.8125 62.3125 
L 9.8125 71.09375 
Q 15.4375 72.65625 20.34375 73.4375 
Q 25.25 74.21875 29.59375 74.21875 
Q 40.828125 74.21875 47.359375 69.109375 
Q 53.90625 64.015625 53.90625 55.328125 
Q 53.90625 49.265625 50.4375 45.09375 
Q 46.96875 40.921875 40.578125 39.3125 
" id="BitstreamVeraSans-Roman-33"/>
      </defs>
      <g transform="translate(355.694642857 537.596875)scale(0.2 -0.2)">
       <use xlink:href="#BitstreamVeraSans-Roman-33"/>
      </g>
     </g>
    </g>
    <g id="xtick_5">
     <g id="line2d_15">
      <g>
       <use style="stroke:#000000;stroke-width:0.5;" x="449.742857143" xlink:href="#m5b40349ae8" y="518.4"/>
      </g>
     </g>
     <g id="line2d_16">
      <g>
       <use style="stroke:#000000;stroke-width:0.5;" x="449.742857143" xlink:href="#m9f2df54fb7" y="57.6"/>
      </g>
     </g>
     <g id="text_5">
      <!-- 4 -->
      <defs>
       <path d="M 37.796875 64.3125 
L 12.890625 25.390625 
L 37.796875 25.390625 
z
M 35.203125 72.90625 
L 47.609375 72.90625 
L 47.609375 25.390625 
L 58.015625 25.390625 
L 58.015625 17.1875 
L 47.609375 17.1875 
L 47.609375 0 
L 37.796875 0 
L 37.796875 17.1875 
L 4.890625 17.1875 
L 4.890625 26.703125 
z
" id="BitstreamVeraSans-Roman-34"/>
      </defs>
      <g transform="translate(443.380357143 537.596875)scale(0.2 -0.2)">
       <use xlink:href="#BitstreamVeraSans-Roman-34"/>
      </g>
     </g>
    </g>
    <g id="xtick_6">
     <g id="line2d_17">
      <g>
       <use style="stroke:#000000;stroke-width:0.5;" x="537.428571429" xlink:href="#m5b40349ae8" y="518.4"/>
      </g>
     </g>
     <g id="line2d_18">
      <g>
       <use style="stroke:#000000;stroke-width:0.5;" x="537.428571429" xlink:href="#m9f2df54fb7" y="57.6"/>
      </g>
     </g>
     <g id="text_6">
      <!-- 5 -->
      <defs>
       <path d="M 10.796875 72.90625 
L 49.515625 72.90625 
L 49.515625 64.59375 
L 19.828125 64.59375 
L 19.828125 46.734375 
Q 21.96875 47.46875 24.109375 47.828125 
Q 26.265625 48.1875 28.421875 48.1875 
Q 40.625 48.1875 47.75 41.5 
Q 54.890625 34.8125 54.890625 23.390625 
Q 54.890625 11.625 47.5625 5.09375 
Q 40.234375 -1.421875 26.90625 -1.421875 
Q 22.3125 -1.421875 17.546875 -0.640625 
Q 12.796875 0.140625 7.71875 1.703125 
L 7.71875 11.625 
Q 12.109375 9.234375 16.796875 8.0625 
Q 21.484375 6.890625 26.703125 6.890625 
Q 35.15625 6.890625 40.078125 11.328125 
Q 45.015625 15.765625 45.015625 23.390625 
Q 45.015625 31 40.078125 35.4375 
Q 35.15625 39.890625 26.703125 39.890625 
Q 22.75 39.890625 18.8125 39.015625 
Q 14.890625 38.140625 10.796875 36.28125 
z
" id="BitstreamVeraSans-Roman-35"/>
      </defs>
      <g transform="translate(531.066071429 537.596875)scale(0.2 -0.2)">
       <use xlink:href="#BitstreamVeraSans-Roman-35"/>
      </g>
     </g>
    </g>
    <g id="xtick_7">
     <g id="line2d_19">
      <g>
       <use style="stroke:#000000;stroke-width:0.5;" x="625.114285714" xlink:href="#m5b40349ae8" y="518.4"/>
      </g>
     </g>
     <g id="line2d_20">
      <g>
       <use style="stroke:#000000;stroke-width:0.5;" x="625.114285714" xlink:href="#m9f2df54fb7" y="57.6"/>
      </g>
     </g>
     <g id="text_7">
      <!-- 6 -->
      <defs>
       <path d="M 33.015625 40.375 
Q 26.375 40.375 22.484375 35.828125 
Q 18.609375 31.296875 18.609375 23.390625 
Q 18.609375 15.53125 22.484375 10.953125 
Q 26.375 6.390625 33.015625 6.390625 
Q 39.65625 6.390625 43.53125 10.953125 
Q 47.40625 15.53125 47.40625 23.390625 
Q 47.40625 31.296875 43.53125 35.828125 
Q 39.65625 40.375 33.015625 40.375 
M 52.59375 71.296875 
L 52.59375 62.3125 
Q 48.875 64.0625 45.09375 64.984375 
Q 41.3125 65.921875 37.59375 65.921875 
Q 27.828125 65.921875 22.671875 59.328125 
Q 17.53125 52.734375 16.796875 39.40625 
Q 19.671875 43.65625 24.015625 45.921875 
Q 28.375 48.1875 33.59375 48.1875 
Q 44.578125 48.1875 50.953125 41.515625 
Q 57.328125 34.859375 57.328125 23.390625 
Q 57.328125 12.15625 50.6875 5.359375 
Q 44.046875 -1.421875 33.015625 -1.421875 
Q 20.359375 -1.421875 13.671875 8.265625 
Q 6.984375 17.96875 6.984375 36.375 
Q 6.984375 53.65625 15.1875 63.9375 
Q 23.390625 74.21875 37.203125 74.21875 
Q 40.921875 74.21875 44.703125 73.484375 
Q 48.484375 72.75 52.59375 71.296875 
" id="BitstreamVeraSans-Roman-36"/>
      </defs>
      <g transform="translate(618.751785714 537.596875)scale(0.2 -0.2)">
       <use xlink:href="#BitstreamVeraSans-Roman-36"/>
      </g>
     </g>
    </g>
    <g id="xtick_8">
     <g id="line2d_21">
      <g>
       <use style="stroke:#000000;stroke-width:0.5;" x="712.8" xlink:href="#m5b40349ae8" y="518.4"/>
      </g>
     </g>
     <g id="line2d_22">
      <g>
       <use style="stroke:#000000;stroke-width:0.5;" x="712.8" xlink:href="#m9f2df54fb7" y="57.6"/>
      </g>
     </g>
     <g id="text_8">
      <!-- 7 -->
      <defs>
       <path d="M 8.203125 72.90625 
L 55.078125 72.90625 
L 55.078125 68.703125 
L 28.609375 0 
L 18.3125 0 
L 43.21875 64.59375 
L 8.203125 64.59375 
z
" id="BitstreamVeraSans-Roman-37"/>
      </defs>
      <g transform="translate(706.4375 537.596875)scale(0.2 -0.2)">
       <use xlink:href="#BitstreamVeraSans-Roman-37"/>
      </g>
     </g>
    </g>
    <g id="text_9">
     <!-- Time-slot($\times 10^3$) -->
     <defs>
      <path d="M 9.515625 7.71875 
Q 11.859375 4.296875 15.8125 2.640625 
Q 19.78125 0.984375 24.3125 0.984375 
Q 30.125 0.984375 32.5625 5.9375 
Q 35.015625 10.890625 35.015625 17.1875 
Q 35.015625 20.015625 34.5 22.84375 
Q 33.984375 25.6875 32.765625 28.125 
Q 31.546875 30.5625 29.421875 32.03125 
Q 27.296875 33.5 24.21875 33.5 
L 17.578125 33.5 
Q 16.703125 33.5 16.703125 34.421875 
L 16.703125 35.296875 
Q 16.703125 36.078125 17.578125 36.078125 
L 23.09375 36.53125 
Q 26.609375 36.53125 28.921875 39.15625 
Q 31.25 41.796875 32.328125 45.578125 
Q 33.40625 49.359375 33.40625 52.78125 
Q 33.40625 57.5625 31.15625 60.640625 
Q 28.90625 63.71875 24.3125 63.71875 
Q 20.515625 63.71875 17.046875 62.28125 
Q 13.578125 60.84375 11.53125 57.90625 
Q 11.71875 57.953125 11.859375 57.984375 
Q 12.015625 58.015625 12.203125 58.015625 
Q 14.453125 58.015625 15.96875 56.453125 
Q 17.484375 54.890625 17.484375 52.6875 
Q 17.484375 50.53125 15.96875 48.96875 
Q 14.453125 47.40625 12.203125 47.40625 
Q 10.015625 47.40625 8.453125 48.96875 
Q 6.890625 50.53125 6.890625 52.6875 
Q 6.890625 56.984375 9.46875 60.15625 
Q 12.0625 63.328125 16.140625 64.96875 
Q 20.21875 66.609375 24.3125 66.609375 
Q 27.34375 66.609375 30.703125 65.703125 
Q 34.078125 64.796875 36.8125 63.109375 
Q 39.546875 61.421875 41.28125 58.78125 
Q 43.015625 56.15625 43.015625 52.78125 
Q 43.015625 48.578125 41.140625 45.015625 
Q 39.265625 41.453125 35.984375 38.859375 
Q 32.71875 36.28125 28.8125 35.015625 
Q 33.15625 34.1875 37.0625 31.734375 
Q 40.96875 29.296875 43.328125 25.484375 
Q 45.703125 21.6875 45.703125 17.28125 
Q 45.703125 11.765625 42.671875 7.296875 
Q 39.65625 2.828125 34.71875 0.3125 
Q 29.78125 -2.203125 24.3125 -2.203125 
Q 19.625 -2.203125 14.90625 -0.40625 
Q 10.203125 1.375 7.203125 4.9375 
Q 4.203125 8.5 4.203125 13.484375 
Q 4.203125 15.96875 5.859375 17.625 
Q 7.515625 19.28125 10.015625 19.28125 
Q 11.625 19.28125 12.96875 18.53125 
Q 14.3125 17.78125 15.0625 16.40625 
Q 15.828125 15.046875 15.828125 13.484375 
Q 15.828125 11.03125 14.109375 9.375 
Q 12.40625 7.71875 10.015625 7.71875 
z
" id="Cmr10-33"/>
      <path d="M 14.703125 2.875 
Q 14.703125 3.65625 15.1875 4.296875 
L 35.984375 25 
L 15.1875 45.796875 
Q 14.703125 46.296875 14.703125 47.125 
Q 14.703125 47.859375 15.28125 48.484375 
Q 15.875 49.125 16.703125 49.125 
Q 17.390625 49.125 18.21875 48.484375 
L 38.921875 27.78125 
L 59.515625 48.484375 
Q 60.359375 49.125 60.984375 49.125 
Q 61.8125 49.125 62.390625 48.53125 
Q 62.984375 47.953125 62.984375 47.125 
Q 62.984375 46.296875 62.5 45.796875 
L 41.703125 25 
L 62.5 4.296875 
Q 62.984375 3.65625 62.984375 2.875 
Q 62.984375 2.046875 62.390625 1.453125 
Q 61.8125 0.875 60.984375 0.875 
Q 60.25 0.875 59.515625 1.609375 
L 38.921875 22.21875 
L 18.21875 1.609375 
Q 17.484375 0.875 16.703125 0.875 
Q 15.875 0.875 15.28125 1.515625 
Q 14.703125 2.15625 14.703125 2.875 
" id="Cmsy10-a3"/>
      <path d="M 9.28125 0 
L 9.28125 3.515625 
Q 21.78125 3.515625 21.78125 6.6875 
L 21.78125 59.1875 
Q 16.609375 56.6875 8.6875 56.6875 
L 8.6875 60.203125 
Q 20.953125 60.203125 27.203125 66.609375 
L 28.609375 66.609375 
Q 28.953125 66.609375 29.265625 66.328125 
Q 29.59375 66.0625 29.59375 65.71875 
L 29.59375 6.6875 
Q 29.59375 3.515625 42.09375 3.515625 
L 42.09375 0 
z
" id="Cmr10-31"/>
      <path d="M 25 -2.203125 
Q 12.75 -2.203125 8.328125 7.875 
Q 3.90625 17.96875 3.90625 31.890625 
Q 3.90625 40.578125 5.484375 48.234375 
Q 7.078125 55.90625 11.78125 61.25 
Q 16.5 66.609375 25 66.609375 
Q 31.59375 66.609375 35.78125 63.375 
Q 39.984375 60.15625 42.1875 55.046875 
Q 44.390625 49.953125 45.1875 44.109375 
Q 46 38.28125 46 31.890625 
Q 46 23.296875 44.40625 15.796875 
Q 42.828125 8.296875 38.1875 3.046875 
Q 33.546875 -2.203125 25 -2.203125 
M 25 0.390625 
Q 30.5625 0.390625 33.296875 6.09375 
Q 36.03125 11.8125 36.671875 18.75 
Q 37.3125 25.6875 37.3125 33.5 
Q 37.3125 41.015625 36.671875 47.359375 
Q 36.03125 53.71875 33.3125 58.859375 
Q 30.609375 64.015625 25 64.015625 
Q 19.34375 64.015625 16.609375 58.828125 
Q 13.875 53.65625 13.234375 47.328125 
Q 12.59375 41.015625 12.59375 33.5 
Q 12.59375 27.9375 12.859375 23 
Q 13.140625 18.0625 14.3125 12.8125 
Q 15.484375 7.5625 18.09375 3.96875 
Q 20.703125 0.390625 25 0.390625 
" id="Cmr10-30"/>
      <path d="M 8.015625 75.875 
L 15.828125 75.875 
Q 23.140625 64.359375 26.78125 53.3125 
Q 30.421875 42.28125 30.421875 31.390625 
Q 30.421875 20.453125 26.78125 9.375 
Q 23.140625 -1.703125 15.828125 -13.1875 
L 8.015625 -13.1875 
Q 14.5 -2 17.703125 9.0625 
Q 20.90625 20.125 20.90625 31.390625 
Q 20.90625 42.671875 17.703125 53.65625 
Q 14.5 64.65625 8.015625 75.875 
" id="BitstreamVeraSans-Roman-29"/>
      <path d="M 52 44.1875 
Q 55.375 50.25 60.0625 53.125 
Q 64.75 56 71.09375 56 
Q 79.640625 56 84.28125 50.015625 
Q 88.921875 44.046875 88.921875 33.015625 
L 88.921875 0 
L 79.890625 0 
L 79.890625 32.71875 
Q 79.890625 40.578125 77.09375 44.375 
Q 74.3125 48.1875 68.609375 48.1875 
Q 61.625 48.1875 57.5625 43.546875 
Q 53.515625 38.921875 53.515625 30.90625 
L 53.515625 0 
L 44.484375 0 
L 44.484375 32.71875 
Q 44.484375 40.625 41.703125 44.40625 
Q 38.921875 48.1875 33.109375 48.1875 
Q 26.21875 48.1875 22.15625 43.53125 
Q 18.109375 38.875 18.109375 30.90625 
L 18.109375 0 
L 9.078125 0 
L 9.078125 54.6875 
L 18.109375 54.6875 
L 18.109375 46.1875 
Q 21.1875 51.21875 25.484375 53.609375 
Q 29.78125 56 35.6875 56 
Q 41.65625 56 45.828125 52.96875 
Q 50 49.953125 52 44.1875 
" id="BitstreamVeraSans-Roman-6d"/>
      <path d="M 30.609375 48.390625 
Q 23.390625 48.390625 19.1875 42.75 
Q 14.984375 37.109375 14.984375 27.296875 
Q 14.984375 17.484375 19.15625 11.84375 
Q 23.34375 6.203125 30.609375 6.203125 
Q 37.796875 6.203125 41.984375 11.859375 
Q 46.1875 17.53125 46.1875 27.296875 
Q 46.1875 37.015625 41.984375 42.703125 
Q 37.796875 48.390625 30.609375 48.390625 
M 30.609375 56 
Q 42.328125 56 49.015625 48.375 
Q 55.71875 40.765625 55.71875 27.296875 
Q 55.71875 13.875 49.015625 6.21875 
Q 42.328125 -1.421875 30.609375 -1.421875 
Q 18.84375 -1.421875 12.171875 6.21875 
Q 5.515625 13.875 5.515625 27.296875 
Q 5.515625 40.765625 12.171875 48.375 
Q 18.84375 56 30.609375 56 
" id="BitstreamVeraSans-Roman-6f"/>
      <path d="M 9.421875 75.984375 
L 18.40625 75.984375 
L 18.40625 0 
L 9.421875 0 
z
" id="BitstreamVeraSans-Roman-6c"/>
      <path d="M 9.421875 54.6875 
L 18.40625 54.6875 
L 18.40625 0 
L 9.421875 0 
z
M 9.421875 75.984375 
L 18.40625 75.984375 
L 18.40625 64.59375 
L 9.421875 64.59375 
z
" id="BitstreamVeraSans-Roman-69"/>
      <path d="M 4.890625 31.390625 
L 31.203125 31.390625 
L 31.203125 23.390625 
L 4.890625 23.390625 
z
" id="BitstreamVeraSans-Roman-2d"/>
      <path d="M 31 75.875 
Q 24.46875 64.65625 21.28125 53.65625 
Q 18.109375 42.671875 18.109375 31.390625 
Q 18.109375 20.125 21.3125 9.0625 
Q 24.515625 -2 31 -13.1875 
L 23.1875 -13.1875 
Q 15.875 -1.703125 12.234375 9.375 
Q 8.59375 20.453125 8.59375 31.390625 
Q 8.59375 42.28125 12.203125 53.3125 
Q 15.828125 64.359375 23.1875 75.875 
z
" id="BitstreamVeraSans-Roman-28"/>
      <path d="M 56.203125 29.59375 
L 56.203125 25.203125 
L 14.890625 25.203125 
Q 15.484375 15.921875 20.484375 11.0625 
Q 25.484375 6.203125 34.421875 6.203125 
Q 39.59375 6.203125 44.453125 7.46875 
Q 49.3125 8.734375 54.109375 11.28125 
L 54.109375 2.78125 
Q 49.265625 0.734375 44.1875 -0.34375 
Q 39.109375 -1.421875 33.890625 -1.421875 
Q 20.796875 -1.421875 13.15625 6.1875 
Q 5.515625 13.8125 5.515625 26.8125 
Q 5.515625 40.234375 12.765625 48.109375 
Q 20.015625 56 32.328125 56 
Q 43.359375 56 49.78125 48.890625 
Q 56.203125 41.796875 56.203125 29.59375 
M 47.21875 32.234375 
Q 47.125 39.59375 43.09375 43.984375 
Q 39.0625 48.390625 32.421875 48.390625 
Q 24.90625 48.390625 20.390625 44.140625 
Q 15.875 39.890625 15.1875 32.171875 
z
" id="BitstreamVeraSans-Roman-65"/>
      <path d="M -0.296875 72.90625 
L 61.375 72.90625 
L 61.375 64.59375 
L 35.5 64.59375 
L 35.5 0 
L 25.59375 0 
L 25.59375 64.59375 
L -0.296875 64.59375 
z
" id="BitstreamVeraSans-Roman-54"/>
      <path d="M 18.3125 70.21875 
L 18.3125 54.6875 
L 36.8125 54.6875 
L 36.8125 47.703125 
L 18.3125 47.703125 
L 18.3125 18.015625 
Q 18.3125 11.328125 20.140625 9.421875 
Q 21.96875 7.515625 27.59375 7.515625 
L 36.8125 7.515625 
L 36.8125 0 
L 27.59375 0 
Q 17.1875 0 13.234375 3.875 
Q 9.28125 7.765625 9.28125 18.015625 
L 9.28125 47.703125 
L 2.6875 47.703125 
L 2.6875 54.6875 
L 9.28125 54.6875 
L 9.28125 70.21875 
z
" id="BitstreamVeraSans-Roman-74"/>
      <path d="M 44.28125 53.078125 
L 44.28125 44.578125 
Q 40.484375 46.53125 36.375 47.5 
Q 32.28125 48.484375 27.875 48.484375 
Q 21.1875 48.484375 17.84375 46.4375 
Q 14.5 44.390625 14.5 40.28125 
Q 14.5 37.15625 16.890625 35.375 
Q 19.28125 33.59375 26.515625 31.984375 
L 29.59375 31.296875 
Q 39.15625 29.25 43.1875 25.515625 
Q 47.21875 21.78125 47.21875 15.09375 
Q 47.21875 7.46875 41.1875 3.015625 
Q 35.15625 -1.421875 24.609375 -1.421875 
Q 20.21875 -1.421875 15.453125 -0.5625 
Q 10.6875 0.296875 5.421875 2 
L 5.421875 11.28125 
Q 10.40625 8.6875 15.234375 7.390625 
Q 20.0625 6.109375 24.8125 6.109375 
Q 31.15625 6.109375 34.5625 8.28125 
Q 37.984375 10.453125 37.984375 14.40625 
Q 37.984375 18.0625 35.515625 20.015625 
Q 33.0625 21.96875 24.703125 23.78125 
L 21.578125 24.515625 
Q 13.234375 26.265625 9.515625 29.90625 
Q 5.8125 33.546875 5.8125 39.890625 
Q 5.8125 47.609375 11.28125 51.796875 
Q 16.75 56 26.8125 56 
Q 31.78125 56 36.171875 55.265625 
Q 40.578125 54.546875 44.28125 53.078125 
" id="BitstreamVeraSans-Roman-73"/>
     </defs>
     <g transform="translate(275.68 573.3453125)scale(0.34 -0.34)">
      <use transform="translate(0.0 0.109375)" xlink:href="#BitstreamVeraSans-Roman-54"/>
      <use transform="translate(61.083984375 0.109375)" xlink:href="#BitstreamVeraSans-Roman-69"/>
      <use transform="translate(88.8671875 0.109375)" xlink:href="#BitstreamVeraSans-Roman-6d"/>
      <use transform="translate(186.279296875 0.109375)" xlink:href="#BitstreamVeraSans-Roman-65"/>
      <use transform="translate(247.802734375 0.109375)" xlink:href="#BitstreamVeraSans-Roman-2d"/>
      <use transform="translate(283.88671875 0.109375)" xlink:href="#BitstreamVeraSans-Roman-73"/>
      <use transform="translate(335.986328125 0.109375)" xlink:href="#BitstreamVeraSans-Roman-6c"/>
      <use transform="translate(363.76953125 0.109375)" xlink:href="#BitstreamVeraSans-Roman-6f"/>
      <use transform="translate(424.951171875 0.109375)" xlink:href="#BitstreamVeraSans-Roman-74"/>
      <use transform="translate(464.16015625 0.109375)" xlink:href="#BitstreamVeraSans-Roman-28"/>
      <use transform="translate(503.173828125 0.109375)" xlink:href="#Cmsy10-a3"/>
      <use transform="translate(580.859375 0.109375)" xlink:href="#Cmr10-31"/>
      <use transform="translate(630.859375 0.109375)" xlink:href="#Cmr10-30"/>
      <use transform="translate(685.323515625 38.3734375)scale(0.7)" xlink:href="#Cmr10-33"/>
      <use transform="translate(726.700859375 0.109375)" xlink:href="#BitstreamVeraSans-Roman-29"/>
     </g>
    </g>
    <g id="text_10">
     <!-- 1e3 -->
     <g transform="translate(690.14625 553.874375)scale(0.12 -0.12)">
      <use xlink:href="#BitstreamVeraSans-Roman-31"/>
      <use x="63.623046875" xlink:href="#BitstreamVeraSans-Roman-65"/>
      <use x="125.146484375" xlink:href="#BitstreamVeraSans-Roman-33"/>
     </g>
    </g>
   </g>
   <g id="matplotlib.axis_2">
    <g id="ytick_1">
     <g id="line2d_23">
      <defs>
       <path d="M 0 0 
L 4 0 
" id="m9507cdf62a" style="stroke:#000000;stroke-width:0.5;"/>
      </defs>
      <g>
       <use style="stroke:#000000;stroke-width:0.5;" x="99.0" xlink:href="#m9507cdf62a" y="518.4"/>
      </g>
     </g>
     <g id="line2d_24">
      <defs>
       <path d="M 0 0 
L -4 0 
" id="mc6fe80f5b0" style="stroke:#000000;stroke-width:0.5;"/>
      </defs>
      <g>
       <use style="stroke:#000000;stroke-width:0.5;" x="712.8" xlink:href="#mc6fe80f5b0" y="518.4"/>
      </g>
     </g>
     <g id="text_11">
      <!-- 1 -->
      <defs>
       <path d="M 10.59375 35.5 
L 73.1875 35.5 
L 73.1875 27.203125 
L 10.59375 27.203125 
z
" id="BitstreamVeraSans-Roman-2212"/>
      </defs>
      <g transform="translate(65.515625 523.91875)scale(0.2 -0.2)">
       <use xlink:href="#BitstreamVeraSans-Roman-2212"/>
       <use x="83.7890625" xlink:href="#BitstreamVeraSans-Roman-31"/>
      </g>
     </g>
    </g>
    <g id="ytick_2">
     <g id="line2d_25">
      <g>
       <use style="stroke:#000000;stroke-width:0.5;" x="99.0" xlink:href="#m9507cdf62a" y="472.32"/>
      </g>
     </g>
     <g id="line2d_26">
      <g>
       <use style="stroke:#000000;stroke-width:0.5;" x="712.8" xlink:href="#mc6fe80f5b0" y="472.32"/>
      </g>
     </g>
     <g id="text_12">
      <!-- 0 -->
      <g transform="translate(82.275 477.83875)scale(0.2 -0.2)">
       <use xlink:href="#BitstreamVeraSans-Roman-30"/>
      </g>
     </g>
    </g>
    <g id="ytick_3">
     <g id="line2d_27">
      <g>
       <use style="stroke:#000000;stroke-width:0.5;" x="99.0" xlink:href="#m9507cdf62a" y="334.08"/>
      </g>
     </g>
     <g id="line2d_28">
      <g>
       <use style="stroke:#000000;stroke-width:0.5;" x="712.8" xlink:href="#mc6fe80f5b0" y="334.08"/>
      </g>
     </g>
     <g id="text_13">
      <!-- 3 -->
      <g transform="translate(82.275 339.59875)scale(0.2 -0.2)">
       <use xlink:href="#BitstreamVeraSans-Roman-33"/>
      </g>
     </g>
    </g>
    <g id="ytick_4">
     <g id="line2d_29">
      <g>
       <use style="stroke:#000000;stroke-width:0.5;" x="99.0" xlink:href="#m9507cdf62a" y="195.84"/>
      </g>
     </g>
     <g id="line2d_30">
      <g>
       <use style="stroke:#000000;stroke-width:0.5;" x="712.8" xlink:href="#mc6fe80f5b0" y="195.84"/>
      </g>
     </g>
     <g id="text_14">
      <!-- 6 -->
      <g transform="translate(82.275 201.35875)scale(0.2 -0.2)">
       <use xlink:href="#BitstreamVeraSans-Roman-36"/>
      </g>
     </g>
    </g>
    <g id="ytick_5">
     <g id="line2d_31">
      <g>
       <use style="stroke:#000000;stroke-width:0.5;" x="99.0" xlink:href="#m9507cdf62a" y="57.6"/>
      </g>
     </g>
     <g id="line2d_32">
      <g>
       <use style="stroke:#000000;stroke-width:0.5;" x="712.8" xlink:href="#mc6fe80f5b0" y="57.6"/>
      </g>
     </g>
     <g id="text_15">
      <!-- 9 -->
      <defs>
       <path d="M 10.984375 1.515625 
L 10.984375 10.5 
Q 14.703125 8.734375 18.5 7.8125 
Q 22.3125 6.890625 25.984375 6.890625 
Q 35.75 6.890625 40.890625 13.453125 
Q 46.046875 20.015625 46.78125 33.40625 
Q 43.953125 29.203125 39.59375 26.953125 
Q 35.25 24.703125 29.984375 24.703125 
Q 19.046875 24.703125 12.671875 31.3125 
Q 6.296875 37.9375 6.296875 49.421875 
Q 6.296875 60.640625 12.9375 67.421875 
Q 19.578125 74.21875 30.609375 74.21875 
Q 43.265625 74.21875 49.921875 64.515625 
Q 56.59375 54.828125 56.59375 36.375 
Q 56.59375 19.140625 48.40625 8.859375 
Q 40.234375 -1.421875 26.421875 -1.421875 
Q 22.703125 -1.421875 18.890625 -0.6875 
Q 15.09375 0.046875 10.984375 1.515625 
M 30.609375 32.421875 
Q 37.25 32.421875 41.125 36.953125 
Q 45.015625 41.5 45.015625 49.421875 
Q 45.015625 57.28125 41.125 61.84375 
Q 37.25 66.40625 30.609375 66.40625 
Q 23.96875 66.40625 20.09375 61.84375 
Q 16.21875 57.28125 16.21875 49.421875 
Q 16.21875 41.5 20.09375 36.953125 
Q 23.96875 32.421875 30.609375 32.421875 
" id="BitstreamVeraSans-Roman-39"/>
      </defs>
      <g transform="translate(82.275 63.11875)scale(0.2 -0.2)">
       <use xlink:href="#BitstreamVeraSans-Roman-39"/>
      </g>
     </g>
    </g>
    <g id="text_16">
     <!-- Variance of Queue Backlog($\times 10^{13}$) -->
     <defs>
      <path id="BitstreamVeraSans-Roman-20"/>
      <path d="M 8.5 21.578125 
L 8.5 54.6875 
L 17.484375 54.6875 
L 17.484375 21.921875 
Q 17.484375 14.15625 20.5 10.265625 
Q 23.53125 6.390625 29.59375 6.390625 
Q 36.859375 6.390625 41.078125 11.03125 
Q 45.3125 15.671875 45.3125 23.6875 
L 45.3125 54.6875 
L 54.296875 54.6875 
L 54.296875 0 
L 45.3125 0 
L 45.3125 8.40625 
Q 42.046875 3.421875 37.71875 1 
Q 33.40625 -1.421875 27.6875 -1.421875 
Q 18.265625 -1.421875 13.375 4.4375 
Q 8.5 10.296875 8.5 21.578125 
" id="BitstreamVeraSans-Roman-75"/>
      <path d="M 54.890625 33.015625 
L 54.890625 0 
L 45.90625 0 
L 45.90625 32.71875 
Q 45.90625 40.484375 42.875 44.328125 
Q 39.84375 48.1875 33.796875 48.1875 
Q 26.515625 48.1875 22.3125 43.546875 
Q 18.109375 38.921875 18.109375 30.90625 
L 18.109375 0 
L 9.078125 0 
L 9.078125 54.6875 
L 18.109375 54.6875 
L 18.109375 46.1875 
Q 21.34375 51.125 25.703125 53.5625 
Q 30.078125 56 35.796875 56 
Q 45.21875 56 50.046875 50.171875 
Q 54.890625 44.34375 54.890625 33.015625 
" id="BitstreamVeraSans-Roman-6e"/>
      <path d="M 34.28125 27.484375 
Q 23.390625 27.484375 19.1875 25 
Q 14.984375 22.515625 14.984375 16.5 
Q 14.984375 11.71875 18.140625 8.90625 
Q 21.296875 6.109375 26.703125 6.109375 
Q 34.1875 6.109375 38.703125 11.40625 
Q 43.21875 16.703125 43.21875 25.484375 
L 43.21875 27.484375 
z
M 52.203125 31.203125 
L 52.203125 0 
L 43.21875 0 
L 43.21875 8.296875 
Q 40.140625 3.328125 35.546875 0.953125 
Q 30.953125 -1.421875 24.3125 -1.421875 
Q 15.921875 -1.421875 10.953125 3.296875 
Q 6 8.015625 6 15.921875 
Q 6 25.140625 12.171875 29.828125 
Q 18.359375 34.515625 30.609375 34.515625 
L 43.21875 34.515625 
L 43.21875 35.40625 
Q 43.21875 41.609375 39.140625 45 
Q 35.0625 48.390625 27.6875 48.390625 
Q 23 48.390625 18.546875 47.265625 
Q 14.109375 46.140625 10.015625 43.890625 
L 10.015625 52.203125 
Q 14.9375 54.109375 19.578125 55.046875 
Q 24.21875 56 28.609375 56 
Q 40.484375 56 46.34375 49.84375 
Q 52.203125 43.703125 52.203125 31.203125 
" id="BitstreamVeraSans-Roman-61"/>
      <path d="M 9.078125 75.984375 
L 18.109375 75.984375 
L 18.109375 31.109375 
L 44.921875 54.6875 
L 56.390625 54.6875 
L 27.390625 29.109375 
L 57.625 0 
L 45.90625 0 
L 18.109375 26.703125 
L 18.109375 0 
L 9.078125 0 
z
" id="BitstreamVeraSans-Roman-6b"/>
      <path d="M 39.40625 66.21875 
Q 28.65625 66.21875 22.328125 58.203125 
Q 16.015625 50.203125 16.015625 36.375 
Q 16.015625 22.609375 22.328125 14.59375 
Q 28.65625 6.59375 39.40625 6.59375 
Q 50.140625 6.59375 56.421875 14.59375 
Q 62.703125 22.609375 62.703125 36.375 
Q 62.703125 50.203125 56.421875 58.203125 
Q 50.140625 66.21875 39.40625 66.21875 
M 53.21875 1.3125 
L 66.21875 -12.890625 
L 54.296875 -12.890625 
L 43.5 -1.21875 
Q 41.890625 -1.3125 41.03125 -1.359375 
Q 40.1875 -1.421875 39.40625 -1.421875 
Q 24.03125 -1.421875 14.8125 8.859375 
Q 5.609375 19.140625 5.609375 36.375 
Q 5.609375 53.65625 14.8125 63.9375 
Q 24.03125 74.21875 39.40625 74.21875 
Q 54.734375 74.21875 63.90625 63.9375 
Q 73.09375 53.65625 73.09375 36.375 
Q 73.09375 23.6875 67.984375 14.640625 
Q 62.890625 5.609375 53.21875 1.3125 
" id="BitstreamVeraSans-Roman-51"/>
      <path d="M 19.671875 34.8125 
L 19.671875 8.109375 
L 35.5 8.109375 
Q 43.453125 8.109375 47.28125 11.40625 
Q 51.125 14.703125 51.125 21.484375 
Q 51.125 28.328125 47.28125 31.5625 
Q 43.453125 34.8125 35.5 34.8125 
z
M 19.671875 64.796875 
L 19.671875 42.828125 
L 34.28125 42.828125 
Q 41.5 42.828125 45.03125 45.53125 
Q 48.578125 48.25 48.578125 53.8125 
Q 48.578125 59.328125 45.03125 62.0625 
Q 41.5 64.796875 34.28125 64.796875 
z
M 9.8125 72.90625 
L 35.015625 72.90625 
Q 46.296875 72.90625 52.390625 68.21875 
Q 58.5 63.53125 58.5 54.890625 
Q 58.5 48.1875 55.375 44.234375 
Q 52.25 40.28125 46.1875 39.3125 
Q 53.46875 37.75 57.5 32.78125 
Q 61.53125 27.828125 61.53125 20.40625 
Q 61.53125 10.640625 54.890625 5.3125 
Q 48.25 0 35.984375 0 
L 9.8125 0 
z
" id="BitstreamVeraSans-Roman-42"/>
      <path d="M 28.609375 0 
L 0.78125 72.90625 
L 11.078125 72.90625 
L 34.1875 11.53125 
L 57.328125 72.90625 
L 67.578125 72.90625 
L 39.796875 0 
z
" id="BitstreamVeraSans-Roman-56"/>
      <path d="M 45.40625 27.984375 
Q 45.40625 37.75 41.375 43.109375 
Q 37.359375 48.484375 30.078125 48.484375 
Q 22.859375 48.484375 18.828125 43.109375 
Q 14.796875 37.75 14.796875 27.984375 
Q 14.796875 18.265625 18.828125 12.890625 
Q 22.859375 7.515625 30.078125 7.515625 
Q 37.359375 7.515625 41.375 12.890625 
Q 45.40625 18.265625 45.40625 27.984375 
M 54.390625 6.78125 
Q 54.390625 -7.171875 48.1875 -13.984375 
Q 42 -20.796875 29.203125 -20.796875 
Q 24.46875 -20.796875 20.265625 -20.09375 
Q 16.0625 -19.390625 12.109375 -17.921875 
L 12.109375 -9.1875 
Q 16.0625 -11.328125 19.921875 -12.34375 
Q 23.78125 -13.375 27.78125 -13.375 
Q 36.625 -13.375 41.015625 -8.765625 
Q 45.40625 -4.15625 45.40625 5.171875 
L 45.40625 9.625 
Q 42.625 4.78125 38.28125 2.390625 
Q 33.9375 0 27.875 0 
Q 17.828125 0 11.671875 7.65625 
Q 5.515625 15.328125 5.515625 27.984375 
Q 5.515625 40.671875 11.671875 48.328125 
Q 17.828125 56 27.875 56 
Q 33.9375 56 38.28125 53.609375 
Q 42.625 51.21875 45.40625 46.390625 
L 45.40625 54.6875 
L 54.390625 54.6875 
z
" id="BitstreamVeraSans-Roman-67"/>
      <path d="M 37.109375 75.984375 
L 37.109375 68.5 
L 28.515625 68.5 
Q 23.6875 68.5 21.796875 66.546875 
Q 19.921875 64.59375 19.921875 59.515625 
L 19.921875 54.6875 
L 34.71875 54.6875 
L 34.71875 47.703125 
L 19.921875 47.703125 
L 19.921875 0 
L 10.890625 0 
L 10.890625 47.703125 
L 2.296875 47.703125 
L 2.296875 54.6875 
L 10.890625 54.6875 
L 10.890625 58.5 
Q 10.890625 67.625 15.140625 71.796875 
Q 19.390625 75.984375 28.609375 75.984375 
z
" id="BitstreamVeraSans-Roman-66"/>
      <path d="M 41.109375 46.296875 
Q 39.59375 47.171875 37.8125 47.578125 
Q 36.03125 48 33.890625 48 
Q 26.265625 48 22.1875 43.046875 
Q 18.109375 38.09375 18.109375 28.8125 
L 18.109375 0 
L 9.078125 0 
L 9.078125 54.6875 
L 18.109375 54.6875 
L 18.109375 46.1875 
Q 20.953125 51.171875 25.484375 53.578125 
Q 30.03125 56 36.53125 56 
Q 37.453125 56 38.578125 55.875 
Q 39.703125 55.765625 41.0625 55.515625 
z
" id="BitstreamVeraSans-Roman-72"/>
      <path d="M 48.78125 52.59375 
L 48.78125 44.1875 
Q 44.96875 46.296875 41.140625 47.34375 
Q 37.3125 48.390625 33.40625 48.390625 
Q 24.65625 48.390625 19.8125 42.84375 
Q 14.984375 37.3125 14.984375 27.296875 
Q 14.984375 17.28125 19.8125 11.734375 
Q 24.65625 6.203125 33.40625 6.203125 
Q 37.3125 6.203125 41.140625 7.25 
Q 44.96875 8.296875 48.78125 10.40625 
L 48.78125 2.09375 
Q 45.015625 0.34375 40.984375 -0.53125 
Q 36.96875 -1.421875 32.421875 -1.421875 
Q 20.0625 -1.421875 12.78125 6.34375 
Q 5.515625 14.109375 5.515625 27.296875 
Q 5.515625 40.671875 12.859375 48.328125 
Q 20.21875 56 33.015625 56 
Q 37.15625 56 41.109375 55.140625 
Q 45.0625 54.296875 48.78125 52.59375 
" id="BitstreamVeraSans-Roman-63"/>
     </defs>
     <g transform="translate(53.375625 575.64)rotate(-90.0)scale(0.34 -0.34)">
      <use transform="translate(0.0 0.109375)" xlink:href="#BitstreamVeraSans-Roman-56"/>
      <use transform="translate(68.408203125 0.109375)" xlink:href="#BitstreamVeraSans-Roman-61"/>
      <use transform="translate(129.6875 0.109375)" xlink:href="#BitstreamVeraSans-Roman-72"/>
      <use transform="translate(170.80078125 0.109375)" xlink:href="#BitstreamVeraSans-Roman-69"/>
      <use transform="translate(198.583984375 0.109375)" xlink:href="#BitstreamVeraSans-Roman-61"/>
      <use transform="translate(259.86328125 0.109375)" xlink:href="#BitstreamVeraSans-Roman-6e"/>
      <use transform="translate(323.2421875 0.109375)" xlink:href="#BitstreamVeraSans-Roman-63"/>
      <use transform="translate(378.22265625 0.109375)" xlink:href="#BitstreamVeraSans-Roman-65"/>
      <use transform="translate(439.74609375 0.109375)" xlink:href="#BitstreamVeraSans-Roman-20"/>
      <use transform="translate(471.533203125 0.109375)" xlink:href="#BitstreamVeraSans-Roman-6f"/>
      <use transform="translate(532.71484375 0.109375)" xlink:href="#BitstreamVeraSans-Roman-66"/>
      <use transform="translate(567.919921875 0.109375)" xlink:href="#BitstreamVeraSans-Roman-20"/>
      <use transform="translate(599.70703125 0.109375)" xlink:href="#BitstreamVeraSans-Roman-51"/>
      <use transform="translate(678.41796875 0.109375)" xlink:href="#BitstreamVeraSans-Roman-75"/>
      <use transform="translate(741.796875 0.109375)" xlink:href="#BitstreamVeraSans-Roman-65"/>
      <use transform="translate(803.3203125 0.109375)" xlink:href="#BitstreamVeraSans-Roman-75"/>
      <use transform="translate(866.69921875 0.109375)" xlink:href="#BitstreamVeraSans-Roman-65"/>
      <use transform="translate(928.22265625 0.109375)" xlink:href="#BitstreamVeraSans-Roman-20"/>
      <use transform="translate(960.009765625 0.109375)" xlink:href="#BitstreamVeraSans-Roman-42"/>
      <use transform="translate(1028.61328125 0.109375)" xlink:href="#BitstreamVeraSans-Roman-61"/>
      <use transform="translate(1089.89257812 0.109375)" xlink:href="#BitstreamVeraSans-Roman-63"/>
      <use transform="translate(1144.87304688 0.109375)" xlink:href="#BitstreamVeraSans-Roman-6b"/>
      <use transform="translate(1202.78320312 0.109375)" xlink:href="#BitstreamVeraSans-Roman-6c"/>
      <use transform="translate(1230.56640625 0.109375)" xlink:href="#BitstreamVeraSans-Roman-6f"/>
      <use transform="translate(1291.74804688 0.109375)" xlink:href="#BitstreamVeraSans-Roman-67"/>
      <use transform="translate(1355.22460938 0.109375)" xlink:href="#BitstreamVeraSans-Roman-28"/>
      <use transform="translate(1394.23828125 0.109375)" xlink:href="#Cmsy10-a3"/>
      <use transform="translate(1471.92382812 0.109375)" xlink:href="#Cmr10-31"/>
      <use transform="translate(1521.92382812 0.109375)" xlink:href="#Cmr10-30"/>
      <use transform="translate(1576.38796875 38.3734375)scale(0.7)" xlink:href="#Cmr10-31"/>
      <use transform="translate(1611.38796875 38.3734375)scale(0.7)" xlink:href="#Cmr10-33"/>
      <use transform="translate(1652.7653125 0.109375)" xlink:href="#BitstreamVeraSans-Roman-29"/>
     </g>
    </g>
    <g id="text_17">
     <!-- 1e13 -->
     <g transform="translate(99.0 54.6)scale(0.12 -0.12)">
      <use xlink:href="#BitstreamVeraSans-Roman-31"/>
      <use x="63.623046875" xlink:href="#BitstreamVeraSans-Roman-65"/>
      <use x="125.146484375" xlink:href="#BitstreamVeraSans-Roman-31"/>
      <use x="188.76953125" xlink:href="#BitstreamVeraSans-Roman-33"/>
     </g>
    </g>
   </g>
   <g id="legend_1">
    <g id="patch_7">
     <path d="M 112 314.569375 
L 458.58 314.569375 
L 458.58 70.6 
L 112 70.6 
z
" style="fill:#ffffff;stroke:#000000;stroke-linejoin:miter;"/>
    </g>
    <g id="line2d_33">
     <path d="M 130.2 91.655938 
L 166.6 91.655938 
" style="fill:none;stroke:#ff0000;stroke-linecap:square;stroke-width:1.5;"/>
    </g>
    <g id="line2d_34">
     <g>
      <use style="fill:#ff0000;stroke:#000000;stroke-width:0.5;" x="130.2" xlink:href="#m881ffd3cb3" y="91.6559375"/>
      <use style="fill:#ff0000;stroke:#000000;stroke-width:0.5;" x="166.6" xlink:href="#m881ffd3cb3" y="91.6559375"/>
     </g>
    </g>
    <g id="text_18">
     <!-- Static -->
     <defs>
      <path d="M 53.515625 70.515625 
L 53.515625 60.890625 
Q 47.90625 63.578125 42.921875 64.890625 
Q 37.9375 66.21875 33.296875 66.21875 
Q 25.25 66.21875 20.875 63.09375 
Q 16.5 59.96875 16.5 54.203125 
Q 16.5 49.359375 19.40625 46.890625 
Q 22.3125 44.4375 30.421875 42.921875 
L 36.375 41.703125 
Q 47.40625 39.59375 52.65625 34.296875 
Q 57.90625 29 57.90625 20.125 
Q 57.90625 9.515625 50.796875 4.046875 
Q 43.703125 -1.421875 29.984375 -1.421875 
Q 24.8125 -1.421875 18.96875 -0.25 
Q 13.140625 0.921875 6.890625 3.21875 
L 6.890625 13.375 
Q 12.890625 10.015625 18.65625 8.296875 
Q 24.421875 6.59375 29.984375 6.59375 
Q 38.421875 6.59375 43.015625 9.90625 
Q 47.609375 13.234375 47.609375 19.390625 
Q 47.609375 24.75 44.3125 27.78125 
Q 41.015625 30.8125 33.5 32.328125 
L 27.484375 33.5 
Q 16.453125 35.6875 11.515625 40.375 
Q 6.59375 45.0625 6.59375 53.421875 
Q 6.59375 63.09375 13.40625 68.65625 
Q 20.21875 74.21875 32.171875 74.21875 
Q 37.3125 74.21875 42.625 73.28125 
Q 47.953125 72.359375 53.515625 70.515625 
" id="BitstreamVeraSans-Roman-53"/>
     </defs>
     <g transform="translate(195.2 100.7559375)scale(0.26 -0.26)">
      <use xlink:href="#BitstreamVeraSans-Roman-53"/>
      <use x="63.4765625" xlink:href="#BitstreamVeraSans-Roman-74"/>
      <use x="102.685546875" xlink:href="#BitstreamVeraSans-Roman-61"/>
      <use x="163.96484375" xlink:href="#BitstreamVeraSans-Roman-74"/>
      <use x="203.173828125" xlink:href="#BitstreamVeraSans-Roman-69"/>
      <use x="230.95703125" xlink:href="#BitstreamVeraSans-Roman-63"/>
     </g>
    </g>
    <g id="line2d_35">
     <path d="M 130.2 129.819063 
L 166.6 129.819063 
" style="fill:none;stroke:#bfbf00;stroke-linecap:square;stroke-width:1.5;"/>
    </g>
    <g id="line2d_36">
     <g>
      <use style="fill:#bfbf00;stroke:#000000;stroke-width:0.5;" x="130.2" xlink:href="#mcc3c2c247b" y="129.8190625"/>
      <use style="fill:#bfbf00;stroke:#000000;stroke-width:0.5;" x="166.6" xlink:href="#mcc3c2c247b" y="129.8190625"/>
     </g>
    </g>
    <g id="text_19">
     <!-- Random -->
     <defs>
      <path d="M 45.40625 46.390625 
L 45.40625 75.984375 
L 54.390625 75.984375 
L 54.390625 0 
L 45.40625 0 
L 45.40625 8.203125 
Q 42.578125 3.328125 38.25 0.953125 
Q 33.9375 -1.421875 27.875 -1.421875 
Q 17.96875 -1.421875 11.734375 6.484375 
Q 5.515625 14.40625 5.515625 27.296875 
Q 5.515625 40.1875 11.734375 48.09375 
Q 17.96875 56 27.875 56 
Q 33.9375 56 38.25 53.625 
Q 42.578125 51.265625 45.40625 46.390625 
M 14.796875 27.296875 
Q 14.796875 17.390625 18.875 11.75 
Q 22.953125 6.109375 30.078125 6.109375 
Q 37.203125 6.109375 41.296875 11.75 
Q 45.40625 17.390625 45.40625 27.296875 
Q 45.40625 37.203125 41.296875 42.84375 
Q 37.203125 48.484375 30.078125 48.484375 
Q 22.953125 48.484375 18.875 42.84375 
Q 14.796875 37.203125 14.796875 27.296875 
" id="BitstreamVeraSans-Roman-64"/>
      <path d="M 44.390625 34.1875 
Q 47.5625 33.109375 50.5625 29.59375 
Q 53.5625 26.078125 56.59375 19.921875 
L 66.609375 0 
L 56 0 
L 46.6875 18.703125 
Q 43.0625 26.03125 39.671875 28.421875 
Q 36.28125 30.8125 30.421875 30.8125 
L 19.671875 30.8125 
L 19.671875 0 
L 9.8125 0 
L 9.8125 72.90625 
L 32.078125 72.90625 
Q 44.578125 72.90625 50.734375 67.671875 
Q 56.890625 62.453125 56.890625 51.90625 
Q 56.890625 45.015625 53.6875 40.46875 
Q 50.484375 35.9375 44.390625 34.1875 
M 19.671875 64.796875 
L 19.671875 38.921875 
L 32.078125 38.921875 
Q 39.203125 38.921875 42.84375 42.21875 
Q 46.484375 45.515625 46.484375 51.90625 
Q 46.484375 58.296875 42.84375 61.546875 
Q 39.203125 64.796875 32.078125 64.796875 
z
" id="BitstreamVeraSans-Roman-52"/>
     </defs>
     <g transform="translate(195.2 138.9190625)scale(0.26 -0.26)">
      <use xlink:href="#BitstreamVeraSans-Roman-52"/>
      <use x="69.451171875" xlink:href="#BitstreamVeraSans-Roman-61"/>
      <use x="130.73046875" xlink:href="#BitstreamVeraSans-Roman-6e"/>
      <use x="194.109375" xlink:href="#BitstreamVeraSans-Roman-64"/>
      <use x="257.5859375" xlink:href="#BitstreamVeraSans-Roman-6f"/>
      <use x="318.767578125" xlink:href="#BitstreamVeraSans-Roman-6d"/>
     </g>
    </g>
    <g id="line2d_37">
     <path d="M 130.2 167.982188 
L 166.6 167.982188 
" style="fill:none;stroke:#bf00bf;stroke-linecap:square;stroke-width:1.5;"/>
    </g>
    <g id="line2d_38">
     <g>
      <use style="fill:#bf00bf;stroke:#000000;stroke-width:0.5;" x="130.2" xlink:href="#mada4092907" y="167.9821875"/>
      <use style="fill:#bf00bf;stroke:#000000;stroke-width:0.5;" x="166.6" xlink:href="#mada4092907" y="167.9821875"/>
     </g>
    </g>
    <g id="text_20">
     <!-- JSQ -->
     <defs>
      <path d="M 9.8125 72.90625 
L 19.671875 72.90625 
L 19.671875 5.078125 
Q 19.671875 -8.109375 14.671875 -14.0625 
Q 9.671875 -20.015625 -1.421875 -20.015625 
L -5.171875 -20.015625 
L -5.171875 -11.71875 
L -2.09375 -11.71875 
Q 4.4375 -11.71875 7.125 -8.046875 
Q 9.8125 -4.390625 9.8125 5.078125 
z
" id="BitstreamVeraSans-Roman-4a"/>
     </defs>
     <g transform="translate(195.2 177.0821875)scale(0.26 -0.26)">
      <use xlink:href="#BitstreamVeraSans-Roman-4a"/>
      <use x="29.4921875" xlink:href="#BitstreamVeraSans-Roman-53"/>
      <use x="92.96875" xlink:href="#BitstreamVeraSans-Roman-51"/>
     </g>
    </g>
    <g id="line2d_39">
     <path d="M 130.2 208.489375 
L 166.6 208.489375 
" style="fill:none;stroke:#00bfbf;stroke-linecap:square;stroke-width:1.5;"/>
    </g>
    <g id="line2d_40">
     <g>
      <use style="fill:#00bfbf;stroke:#000000;stroke-width:0.5;" x="130.2" xlink:href="#m84a97c7396" y="208.489375"/>
      <use style="fill:#00bfbf;stroke:#000000;stroke-width:0.5;" x="166.6" xlink:href="#m84a97c7396" y="208.489375"/>
     </g>
    </g>
    <g id="text_21">
     <!-- Greedy($V=5\times 10^6$) -->
     <defs>
      <path d="M 25 -2.203125 
Q 18.796875 -2.203125 14.640625 1.09375 
Q 10.5 4.390625 8.21875 9.640625 
Q 5.953125 14.890625 5.078125 20.65625 
Q 4.203125 26.421875 4.203125 32.328125 
Q 4.203125 40.234375 7.28125 48.1875 
Q 10.359375 56.15625 16.328125 61.375 
Q 22.3125 66.609375 30.515625 66.609375 
Q 33.9375 66.609375 36.890625 65.3125 
Q 39.84375 64.015625 41.53125 61.5 
Q 43.21875 58.984375 43.21875 55.421875 
Q 43.21875 53.375 41.828125 51.984375 
Q 40.4375 50.59375 38.375 50.59375 
Q 36.421875 50.59375 35 52 
Q 33.59375 53.421875 33.59375 55.421875 
Q 33.59375 57.375 35 58.78125 
Q 36.421875 60.203125 38.375 60.203125 
L 38.921875 60.203125 
Q 37.640625 62.015625 35.328125 62.859375 
Q 33.015625 63.71875 30.515625 63.71875 
Q 27.484375 63.71875 24.921875 62.390625 
Q 22.359375 61.078125 20.3125 58.828125 
Q 18.265625 56.59375 16.890625 53.875 
Q 15.53125 51.171875 14.765625 47.703125 
Q 14.015625 44.234375 13.8125 41.203125 
Q 13.625 38.1875 13.625 33.59375 
Q 15.375 37.703125 18.59375 40.3125 
Q 21.828125 42.921875 25.875 42.921875 
Q 30.328125 42.921875 33.984375 41.109375 
Q 37.640625 39.3125 40.28125 36.109375 
Q 42.921875 32.90625 44.3125 28.796875 
Q 45.703125 24.703125 45.703125 20.515625 
Q 45.703125 14.65625 43.09375 9.34375 
Q 40.484375 4.046875 35.734375 0.921875 
Q 31 -2.203125 25 -2.203125 
M 25 0.984375 
Q 28.859375 0.984375 31.203125 2.734375 
Q 33.546875 4.5 34.640625 7.390625 
Q 35.75 10.296875 36.015625 13.25 
Q 36.28125 16.21875 36.28125 20.515625 
Q 36.28125 26.171875 35.734375 30.171875 
Q 35.203125 34.1875 32.8125 37.234375 
Q 30.421875 40.28125 25.484375 40.28125 
Q 21.4375 40.28125 18.828125 37.546875 
Q 16.21875 34.8125 15.015625 30.640625 
Q 13.8125 26.46875 13.8125 22.609375 
Q 13.8125 21.296875 13.921875 20.609375 
Q 13.921875 20.453125 13.890625 20.359375 
Q 13.875 20.265625 13.8125 20.125 
Q 13.8125 15.828125 14.6875 11.421875 
Q 15.578125 7.03125 18.0625 4 
Q 20.5625 0.984375 25 0.984375 
" id="Cmr10-36"/>
      <path d="M 8.6875 11.375 
Q 9.71875 8.453125 11.84375 6.046875 
Q 13.96875 3.65625 16.875 2.3125 
Q 19.78125 0.984375 22.90625 0.984375 
Q 30.125 0.984375 32.859375 6.59375 
Q 35.59375 12.203125 35.59375 20.21875 
Q 35.59375 23.6875 35.46875 26.046875 
Q 35.359375 28.421875 34.8125 30.609375 
Q 33.890625 34.125 31.5625 36.765625 
Q 29.25 39.40625 25.875 39.40625 
Q 22.515625 39.40625 20.09375 38.375 
Q 17.671875 37.359375 16.15625 35.984375 
Q 14.65625 34.625 13.484375 33.109375 
Q 12.3125 31.59375 12.015625 31.5 
L 10.890625 31.5 
Q 10.640625 31.5 10.265625 31.8125 
Q 9.90625 32.125 9.90625 32.421875 
L 9.90625 65.828125 
Q 9.90625 66.0625 10.21875 66.328125 
Q 10.546875 66.609375 10.890625 66.609375 
L 11.1875 66.609375 
Q 17.921875 63.375 25.484375 63.375 
Q 32.90625 63.375 39.796875 66.609375 
L 40.09375 66.609375 
Q 40.4375 66.609375 40.71875 66.359375 
Q 41.015625 66.109375 41.015625 65.828125 
L 41.015625 64.890625 
Q 41.015625 64.40625 40.828125 64.40625 
Q 37.40625 59.859375 32.25 57.3125 
Q 27.09375 54.78125 21.578125 54.78125 
Q 17.578125 54.78125 13.375 55.90625 
L 13.375 37.015625 
Q 16.703125 39.703125 19.3125 40.84375 
Q 21.921875 42 25.984375 42 
Q 31.5 42 35.859375 38.8125 
Q 40.234375 35.640625 42.578125 30.53125 
Q 44.921875 25.4375 44.921875 20.125 
Q 44.921875 14.109375 41.96875 8.984375 
Q 39.015625 3.859375 33.9375 0.828125 
Q 28.859375 -2.203125 22.90625 -2.203125 
Q 17.96875 -2.203125 13.84375 0.328125 
Q 9.71875 2.875 7.34375 7.171875 
Q 4.984375 11.46875 4.984375 16.3125 
Q 4.984375 18.5625 6.4375 19.96875 
Q 7.90625 21.390625 10.109375 21.390625 
Q 12.3125 21.390625 13.796875 19.9375 
Q 15.28125 18.5 15.28125 16.3125 
Q 15.28125 14.15625 13.796875 12.671875 
Q 12.3125 11.1875 10.109375 11.1875 
Q 9.765625 11.1875 9.328125 11.25 
Q 8.890625 11.328125 8.6875 11.375 
" id="Cmr10-35"/>
      <path d="M 32.171875 -5.078125 
Q 28.375 -14.84375 24.75 -17.8125 
Q 21.140625 -20.796875 15.09375 -20.796875 
L 7.90625 -20.796875 
L 7.90625 -13.28125 
L 13.1875 -13.28125 
Q 16.890625 -13.28125 18.9375 -11.515625 
Q 21 -9.765625 23.484375 -3.21875 
L 25.09375 0.875 
L 2.984375 54.6875 
L 12.5 54.6875 
L 29.59375 11.921875 
L 46.6875 54.6875 
L 56.203125 54.6875 
z
" id="BitstreamVeraSans-Roman-79"/>
      <path d="M 22.015625 -1.125 
L 14.015625 62.59375 
Q 13.28125 64.796875 6.5 64.796875 
Q 5.515625 64.796875 5.515625 66.109375 
Q 5.71875 67.1875 6 67.75 
Q 6.296875 68.3125 7.171875 68.3125 
L 31.59375 68.3125 
Q 32.125 68.3125 32.375 67.921875 
Q 32.625 67.53125 32.625 67 
Q 32.234375 64.796875 31.296875 64.796875 
Q 23.484375 64.796875 23 62.109375 
L 29.59375 9.8125 
L 60.40625 58.984375 
Q 61.28125 60.640625 61.28125 61.625 
Q 61.28125 63.375 59.6875 64.078125 
Q 58.109375 64.796875 56 64.796875 
Q 54.984375 64.796875 54.984375 66.109375 
Q 55.171875 66.890625 55.3125 67.328125 
Q 55.46875 67.78125 55.765625 68.046875 
Q 56.0625 68.3125 56.6875 68.3125 
L 75.984375 68.3125 
Q 76.90625 68.3125 76.90625 67 
Q 76.515625 64.796875 75.59375 64.796875 
Q 68.0625 64.796875 63.8125 58.203125 
Q 63.625 58.015625 63.484375 58.015625 
L 26.609375 -1.125 
Q 25.875 -2.203125 24.703125 -2.203125 
L 23.296875 -2.203125 
Q 22.171875 -2.203125 22.015625 -1.125 
" id="Cmmi10-56"/>
      <path d="M 59.515625 10.40625 
L 59.515625 29.984375 
L 43.40625 29.984375 
L 43.40625 38.09375 
L 69.28125 38.09375 
L 69.28125 6.78125 
Q 63.578125 2.734375 56.6875 0.65625 
Q 49.8125 -1.421875 42 -1.421875 
Q 24.90625 -1.421875 15.25 8.5625 
Q 5.609375 18.5625 5.609375 36.375 
Q 5.609375 54.25 15.25 64.234375 
Q 24.90625 74.21875 42 74.21875 
Q 49.125 74.21875 55.546875 72.453125 
Q 61.96875 70.703125 67.390625 67.28125 
L 67.390625 56.78125 
Q 61.921875 61.421875 55.765625 63.765625 
Q 49.609375 66.109375 42.828125 66.109375 
Q 29.4375 66.109375 22.71875 58.640625 
Q 16.015625 51.171875 16.015625 36.375 
Q 16.015625 21.625 22.71875 14.15625 
Q 29.4375 6.6875 42.828125 6.6875 
Q 48.046875 6.6875 52.140625 7.59375 
Q 56.25 8.5 59.515625 10.40625 
" id="BitstreamVeraSans-Roman-47"/>
      <path d="M 7.515625 13.28125 
Q 6.6875 13.28125 6.140625 13.90625 
Q 5.609375 14.546875 5.609375 15.28125 
Q 5.609375 16.109375 6.140625 16.6875 
Q 6.6875 17.28125 7.515625 17.28125 
L 70.3125 17.28125 
Q 71.046875 17.28125 71.578125 16.6875 
Q 72.125 16.109375 72.125 15.28125 
Q 72.125 14.546875 71.578125 13.90625 
Q 71.046875 13.28125 70.3125 13.28125 
z
M 7.515625 32.71875 
Q 6.6875 32.71875 6.140625 33.296875 
Q 5.609375 33.890625 5.609375 34.71875 
Q 5.609375 35.453125 6.140625 36.078125 
Q 6.6875 36.71875 7.515625 36.71875 
L 70.3125 36.71875 
Q 71.046875 36.71875 71.578125 36.078125 
Q 72.125 35.453125 72.125 34.71875 
Q 72.125 33.890625 71.578125 33.296875 
Q 71.046875 32.71875 70.3125 32.71875 
z
" id="Cmr10-3d"/>
     </defs>
     <g transform="translate(195.2 217.589375)scale(0.26 -0.26)">
      <use transform="translate(0.0 0.109375)" xlink:href="#BitstreamVeraSans-Roman-47"/>
      <use transform="translate(77.490234375 0.109375)" xlink:href="#BitstreamVeraSans-Roman-72"/>
      <use transform="translate(118.603515625 0.109375)" xlink:href="#BitstreamVeraSans-Roman-65"/>
      <use transform="translate(180.126953125 0.109375)" xlink:href="#BitstreamVeraSans-Roman-65"/>
      <use transform="translate(241.650390625 0.109375)" xlink:href="#BitstreamVeraSans-Roman-64"/>
      <use transform="translate(305.126953125 0.109375)" xlink:href="#BitstreamVeraSans-Roman-79"/>
      <use transform="translate(364.306640625 0.109375)" xlink:href="#BitstreamVeraSans-Roman-28"/>
      <use transform="translate(403.3203125 0.109375)" xlink:href="#Cmmi10-56"/>
      <use transform="translate(479.1796875 0.109375)" xlink:href="#Cmr10-3d"/>
      <use transform="translate(574.423828125 0.109375)" xlink:href="#Cmr10-35"/>
      <use transform="translate(641.982421875 0.109375)" xlink:href="#Cmsy10-a3"/>
      <use transform="translate(737.2265625 0.109375)" xlink:href="#Cmr10-31"/>
      <use transform="translate(787.2265625 0.109375)" xlink:href="#Cmr10-30"/>
      <use transform="translate(841.690703125 38.3734375)scale(0.7)" xlink:href="#Cmr10-36"/>
      <use transform="translate(883.068046875 0.109375)" xlink:href="#BitstreamVeraSans-Roman-29"/>
     </g>
    </g>
    <g id="line2d_41">
     <path d="M 130.2 249.049375 
L 166.6 249.049375 
" style="fill:none;stroke:#0000ff;stroke-linecap:square;stroke-width:1.5;"/>
    </g>
    <g id="line2d_42">
     <g>
      <use style="fill:#0000ff;stroke:#000000;stroke-width:0.5;" x="130.2" xlink:href="#m76c1b75bf7" y="249.049375"/>
      <use style="fill:#0000ff;stroke:#000000;stroke-width:0.5;" x="166.6" xlink:href="#m76c1b75bf7" y="249.049375"/>
     </g>
    </g>
    <g id="text_22">
     <!-- Greedy($V=10\times 10^6$) -->
     <g transform="translate(195.2 258.149375)scale(0.26 -0.26)">
      <use transform="translate(0.0 0.109375)" xlink:href="#BitstreamVeraSans-Roman-47"/>
      <use transform="translate(77.490234375 0.109375)" xlink:href="#BitstreamVeraSans-Roman-72"/>
      <use transform="translate(118.603515625 0.109375)" xlink:href="#BitstreamVeraSans-Roman-65"/>
      <use transform="translate(180.126953125 0.109375)" xlink:href="#BitstreamVeraSans-Roman-65"/>
      <use transform="translate(241.650390625 0.109375)" xlink:href="#BitstreamVeraSans-Roman-64"/>
      <use transform="translate(305.126953125 0.109375)" xlink:href="#BitstreamVeraSans-Roman-79"/>
      <use transform="translate(364.306640625 0.109375)" xlink:href="#BitstreamVeraSans-Roman-28"/>
      <use transform="translate(403.3203125 0.109375)" xlink:href="#Cmmi10-56"/>
      <use transform="translate(479.1796875 0.109375)" xlink:href="#Cmr10-3d"/>
      <use transform="translate(574.423828125 0.109375)" xlink:href="#Cmr10-31"/>
      <use transform="translate(624.423828125 0.109375)" xlink:href="#Cmr10-30"/>
      <use transform="translate(691.982421875 0.109375)" xlink:href="#Cmsy10-a3"/>
      <use transform="translate(787.2265625 0.109375)" xlink:href="#Cmr10-31"/>
      <use transform="translate(837.2265625 0.109375)" xlink:href="#Cmr10-30"/>
      <use transform="translate(891.690703125 38.3734375)scale(0.7)" xlink:href="#Cmr10-36"/>
      <use transform="translate(933.068046875 0.109375)" xlink:href="#BitstreamVeraSans-Roman-29"/>
     </g>
    </g>
    <g id="line2d_43">
     <path d="M 130.2 289.609375 
L 166.6 289.609375 
" style="fill:none;stroke:#008000;stroke-linecap:square;stroke-width:1.5;"/>
    </g>
    <g id="line2d_44">
     <g>
      <use style="fill:#008000;stroke:#000000;stroke-width:0.5;" x="130.2" xlink:href="#m9e935b4a4f" y="289.609375"/>
      <use style="fill:#008000;stroke:#000000;stroke-width:0.5;" x="166.6" xlink:href="#m9e935b4a4f" y="289.609375"/>
     </g>
    </g>
    <g id="text_23">
     <!-- Greedy($V=15\times 10^6$) -->
     <g transform="translate(195.2 298.709375)scale(0.26 -0.26)">
      <use transform="translate(0.0 0.109375)" xlink:href="#BitstreamVeraSans-Roman-47"/>
      <use transform="translate(77.490234375 0.109375)" xlink:href="#BitstreamVeraSans-Roman-72"/>
      <use transform="translate(118.603515625 0.109375)" xlink:href="#BitstreamVeraSans-Roman-65"/>
      <use transform="translate(180.126953125 0.109375)" xlink:href="#BitstreamVeraSans-Roman-65"/>
      <use transform="translate(241.650390625 0.109375)" xlink:href="#BitstreamVeraSans-Roman-64"/>
      <use transform="translate(305.126953125 0.109375)" xlink:href="#BitstreamVeraSans-Roman-79"/>
      <use transform="translate(364.306640625 0.109375)" xlink:href="#BitstreamVeraSans-Roman-28"/>
      <use transform="translate(403.3203125 0.109375)" xlink:href="#Cmmi10-56"/>
      <use transform="translate(479.1796875 0.109375)" xlink:href="#Cmr10-3d"/>
      <use transform="translate(574.423828125 0.109375)" xlink:href="#Cmr10-31"/>
      <use transform="translate(624.423828125 0.109375)" xlink:href="#Cmr10-35"/>
      <use transform="translate(691.982421875 0.109375)" xlink:href="#Cmsy10-a3"/>
      <use transform="translate(787.2265625 0.109375)" xlink:href="#Cmr10-31"/>
      <use transform="translate(837.2265625 0.109375)" xlink:href="#Cmr10-30"/>
      <use transform="translate(891.690703125 38.3734375)scale(0.7)" xlink:href="#Cmr10-36"/>
      <use transform="translate(933.068046875 0.109375)" xlink:href="#BitstreamVeraSans-Roman-29"/>
     </g>
    </g>
   </g>
  </g>
 </g>
 <defs>
  <clipPath id="pd625ad047c">
   <rect height="460.8" width="613.8" x="99.0" y="57.6"/>
  </clipPath>
 </defs>
</svg>
